<svg width="41" height="37" viewBox="0 0 41 37" fill="none" xmlns="http://www.w3.org/2000/svg">
<path d="M16.7233 26.5C16.6344 26.5 16.5011 26.4556 16.3233 26.3667L12.0567 22.7667C11.8789 22.5889 11.79 22.4111 11.79 22.2333C11.79 22.0556 11.8789 21.8778 12.0567 21.7L16.3233 18.1C16.5011 18.0111 16.6789 17.9667 16.8567 17.9667C17.0344 17.9667 17.1678 18.0333 17.2567 18.1667C17.3455 18.3 17.39 18.4556 17.39 18.6333C17.39 18.8111 17.3455 18.9445 17.2567 19.0333L13.5233 22.2333L17.2567 25.4333C17.3455 25.5222 17.39 25.6556 17.39 25.8333C17.39 26.0111 17.3455 26.1667 17.2567 26.3C17.1678 26.4333 16.99 26.5 16.7233 26.5ZM25.2567 26.5C24.99 26.5 24.8122 26.4333 24.7233 26.3C24.6344 26.1667 24.59 26.0111 24.59 25.8333C24.59 25.6556 24.6344 25.5222 24.7233 25.4333L28.4567 22.2333L24.7233 19.0333C24.6344 18.9445 24.59 18.8111 24.59 18.6333C24.59 18.4556 24.6344 18.3 24.7233 18.1667C24.8122 18.0333 24.9455 17.9667 25.1233 17.9667C25.3011 17.9667 25.4789 18.0111 25.6567 18.1L29.9233 21.7C30.1011 21.8778 30.19 22.0556 30.19 22.2333C30.19 22.4111 30.1011 22.5889 29.9233 22.7667L25.6567 26.3667C25.4789 26.4556 25.3455 26.5 25.2567 26.5ZM19.5233 29.3C19.4344 29.3 19.3455 29.2778 19.2567 29.2333C19.1678 29.1889 19.0567 29.1 18.9233 28.9667C18.79 28.8333 18.7678 28.6778 18.8567 28.5L21.5233 15.8333C21.5233 15.6556 21.6122 15.5222 21.79 15.4333C21.9678 15.3444 22.1455 15.3 22.3233 15.3C22.5011 15.3 22.6344 15.3889 22.7233 15.5667C22.8122 15.7444 22.8122 15.9222 22.7233 16.1L20.0567 28.7667C20.0567 29.1222 19.8789 29.3 19.5233 29.3ZM36.59 36.1H5.38999C4.23443 36.1 3.21221 35.6778 2.32332 34.8333C1.43443 33.9889 0.98999 32.9445 0.98999 31.7V5.3C0.98999 4.05556 1.43443 3.01112 2.32332 2.16667C3.21221 1.32223 4.23443 0.900005 5.38999 0.900005H36.59C37.7455 0.900005 38.7678 1.32223 39.6567 2.16667C40.5455 3.01112 40.99 4.05556 40.99 5.3V31.7C40.99 32.9445 40.5455 33.9889 39.6567 34.8333C38.7678 35.6778 37.7455 36.1 36.59 36.1ZM5.38999 2.23334C4.58999 2.23334 3.87888 2.52223 3.25666 3.10001C2.63443 3.67778 2.32332 4.41112 2.32332 5.3V31.7C2.32332 32.5889 2.63443 33.3222 3.25666 33.9C3.87888 34.4778 4.58999 34.7667 5.38999 34.7667H36.59C37.39 34.7667 38.1011 34.4778 38.7233 33.9C39.3455 33.3222 39.6567 32.5889 39.6567 31.7V5.3C39.6567 4.41112 39.3455 3.67778 38.7233 3.10001C38.1011 2.52223 37.39 2.23334 36.59 2.23334H5.38999ZM40.3233 11.4333H1.65666C1.47888 11.4333 1.32332 11.3667 1.18999 11.2333C1.05666 11.1 0.98999 10.9444 0.98999 10.7667C0.98999 10.5889 1.05666 10.4333 1.18999 10.3C1.32332 10.1667 1.47888 10.1 1.65666 10.1H40.3233C40.5011 10.1 40.6567 10.1667 40.79 10.3C40.9233 10.4333 40.99 10.5889 40.99 10.7667C40.99 10.9444 40.9233 11.1 40.79 11.2333C40.6567 11.3667 40.5011 11.4333 40.3233 11.4333ZM12.3233 8.23334C11.7011 8.23334 11.19 8.03334 10.79 7.63334C10.39 7.23334 10.19 6.74445 10.19 6.16667C10.19 5.58889 10.39 5.1 10.79 4.7C11.19 4.3 11.6789 4.10001 12.2567 4.10001C12.8344 4.10001 13.3233 4.3 13.7233 4.7C14.1233 5.1 14.3233 5.58889 14.3233 6.16667C14.3233 6.74445 14.1233 7.23334 13.7233 7.63334C13.3233 8.03334 12.8567 8.23334 12.3233 8.23334ZM12.3233 5.43334C12.0567 5.43334 11.8567 5.5 11.7233 5.63334C11.59 5.76667 11.5233 5.94445 11.5233 6.16667C11.5233 6.38889 11.59 6.56667 11.7233 6.7C11.8567 6.83334 12.0344 6.90001 12.2567 6.90001C12.4789 6.90001 12.6567 6.83334 12.79 6.7C12.9233 6.56667 12.99 6.38889 12.99 6.16667C12.99 5.94445 12.9233 5.76667 12.79 5.63334C12.6567 5.5 12.5011 5.43334 12.3233 5.43334ZM5.78999 8.23334C5.25666 8.23334 4.78999 8.03334 4.38999 7.63334C3.98999 7.23334 3.78999 6.74445 3.78999 6.16667C3.78999 5.58889 3.98999 5.1 4.38999 4.7C4.78999 4.3 5.27888 4.10001 5.85666 4.10001C6.43443 4.10001 6.92332 4.3 7.32332 4.7C7.72332 5.1 7.92332 5.58889 7.92332 6.16667C7.92332 6.74445 7.72332 7.23334 7.32332 7.63334C6.92332 8.03334 6.41221 8.23334 5.78999 8.23334ZM5.78999 5.43334C5.61221 5.43334 5.45666 5.5 5.32332 5.63334C5.18999 5.76667 5.12332 5.94445 5.12332 6.16667C5.12332 6.38889 5.18999 6.56667 5.32332 6.7C5.45666 6.83334 5.63443 6.90001 5.85666 6.90001C6.07888 6.90001 6.25666 6.83334 6.38999 6.7C6.52332 6.56667 6.58999 6.38889 6.58999 6.16667C6.58999 5.94445 6.52332 5.76667 6.38999 5.63334C6.25666 5.5 6.05666 5.43334 5.78999 5.43334ZM18.7233 8.23334C18.1011 8.23334 17.59 8.03334 17.19 7.63334C16.79 7.23334 16.59 6.74445 16.59 6.16667C16.59 5.58889 16.79 5.1 17.19 4.7C17.59 4.3 18.0789 4.10001 18.6567 4.10001C19.2344 4.10001 19.7233 4.3 20.1233 4.7C20.5233 5.1 20.7233 5.58889 20.7233 6.16667C20.7233 6.74445 20.5233 7.23334 20.1233 7.63334C19.7233 8.03334 19.2567 8.23334 18.7233 8.23334ZM18.7233 5.43334C18.4567 5.43334 18.2567 5.5 18.1233 5.63334C17.99 5.76667 17.9233 5.94445 17.9233 6.16667C17.9233 6.38889 17.99 6.58889 18.1233 6.76667C18.2567 6.94445 18.4344 7.03334 18.6567 7.03334C18.8789 7.03334 19.0789 6.94445 19.2567 6.76667C19.4344 6.58889 19.5233 6.38889 19.5233 6.16667C19.5233 5.94445 19.4344 5.76667 19.2567 5.63334C19.0789 5.5 18.9011 5.43334 18.7233 5.43334Z" fill="white"/>
</svg>
