<svg width="34" height="22" viewBox="0 0 34 22" fill="none" xmlns="http://www.w3.org/2000/svg">
<g clip-path="url(#clip0)">
<path d="M30.9651 0H19.7419L18.6451 0.854311H15.3549L14.2581 0H3.0349L0.564453 1.09992V21.4106H31.8529L34 20.0351V13.7491L33.1201 12.6492V9.3494L34 8.24948V1.96362L30.9651 0Z" fill="#5055A0"/>
<path d="M29.9492 20.8969H4.38706C2.56986 20.8969 1.09677 19.4195 1.09677 17.5972V2.27332L0 1.96191V8.24777L0.597656 8.55565V13.384L0 13.7474V20.0334L3.0347 21.9969H14.2581L15.3549 21.2452H18.6451L19.7418 21.9969H30.9653L29.9492 20.8969Z" fill="#3F3F8F"/>
<path d="M32.983 0.00335693L31.6343 0.302046L1.26654 19.8735L3.28297 21.1824L33.6624 1.49247L33.9238 0.703961C33.7739 0.31703 33.4141 0.0344579 32.983 0.00335693Z" fill="#E5646E"/>
<path d="M1.74556 19.5616L0.0735855 21.297C0.223199 21.6844 0.585179 21.9656 1.01629 21.9969L3.80761 20.8456C2.96511 20.6953 2.23551 20.2241 1.74556 19.5616Z" fill="#DB4655"/>
<path d="M2.29093 0.228601L1.11634 0.0288086C0.510583 0.0288086 0.203255 0.610669 0.203255 1.21817V1.42735L31.7587 21.7728L33.9003 20.649L2.29093 0.228601Z" fill="#E5646E"/>
<path d="M33.6264 20.8972H30.2768L31.5886 21.541L32.984 21.9941C33.4148 21.9626 33.7765 21.6817 33.9262 21.2947L33.6264 20.8972Z" fill="#DB4655"/>
<path d="M1.01406 0.00360107C0.585868 0.0370995 0.222891 0.316942 0.0738754 0.702207L1.0968 2.0187V0.044292L1.01406 0.00360107Z" fill="#DB4655"/>
<path d="M34 9.3494L19.1935 8.79944L18.6451 0H15.3549L14.8065 8.79944H0.547852V13.1991H14.8065V21.4772H19.1935V13.1991L34 12.6492V9.3494Z" fill="#E5646E"/>
<path d="M0 12.6477L1.09677 13.1977V8.79803L0 9.34799V12.6477Z" fill="#DB4655"/>
<path d="M18.6452 21.9971H15.355L14.8066 20.8972H19.1936L18.6452 21.9971Z" fill="#DB4655"/>
<path d="M34 12.6492H19.1936C18.8907 12.6492 18.6452 12.8954 18.6452 13.1992V20.8987L19.1625 21.4175L19.742 20.8987V14.7369L29.2653 20.8986L31.151 21.4688L31.2884 20.8986L20.2383 13.7492H22.2618L33.3117 20.8987L33.834 21.1055L34 20.8987V20.0351L24.2848 13.7492H34V12.6492Z" fill="#F2F2F6"/>
<path d="M14.8065 12.6492H1.09677L0.547852 13.1992L1.09677 13.7492H9.71523L1.45224 19.0955L1.0459 19.9789L2.11099 19.9782L11.7382 13.7492H13.7617L3.1102 20.6408L3.26221 21.2803L4.7347 20.8987L14.2581 14.737V20.8987L14.7865 21.4107L15.3549 20.8987V13.1992C15.3549 12.8954 15.1093 12.6492 14.8065 12.6492Z" fill="#F2F2F6"/>
<path d="M14.2581 0V7.26164L3.0349 0H1.09677C1.07166 0 1.03873 0.00199794 1.01402 0.00366287L13.7618 8.24941H11.7382L1.09677 1.36431L0.752582 1.8532L1.09677 2.67322L9.71517 8.24941H1.09677L0.547852 8.79937L1.09677 9.34933H14.8065C15.1093 9.34933 15.3549 9.10312 15.3549 8.79937V0H14.2581Z" fill="#F2F2F6"/>
<path d="M0 8.25085H1.09677V9.35077H0V8.25085Z" fill="#E1E1E6"/>
<path d="M1.09677 1.36431L0.0739766 0.702271C0.0263633 0.825476 0 0.959936 0 1.09992V1.96362L1.09677 2.67322V1.36431Z" fill="#E1E1E6"/>
<path d="M34 1.09992C34 0.959934 33.9714 0.827206 33.9238 0.704001L22.2618 8.24948H20.2382L32.9831 0.00339663C32.9584 0.0017317 32.9284 0 32.9033 0H30.9651L19.742 7.26164V0H18.6452V8.79944C18.6452 9.10312 18.8907 9.3494 19.1936 9.3494H34V8.24948H24.2849L34 1.96362V1.09992Z" fill="#F2F2F6"/>
<path d="M0 12.6492H1.09677V13.7492H0V12.6492Z" fill="#E1E1E6"/>
<path d="M2.11099 19.9792C1.84603 19.7242 1.62058 19.4279 1.45224 19.0966L0 20.0361V20.8997C0 21.0397 0.0260976 21.1736 0.0736445 21.2968L2.11099 19.9792Z" fill="#E1E1E6"/>
<path d="M14.258 20.9001H15.3548V22H14.258V20.9001Z" fill="#E1E1E6"/>
<path d="M18.6451 20.9001H19.7419V22H18.6451V20.9001Z" fill="#E1E1E6"/>
<path d="M3.0347 21.9987L4.7347 20.8987H4.38713C3.93424 20.8987 3.50286 20.8068 3.11027 20.6409L1.01648 21.9953C1.04125 21.9969 1.07166 21.9987 1.09683 21.9987H3.0347Z" fill="#E1E1E6"/>
<path d="M18.6451 20.9001H19.7419V22H18.6451V20.9001Z" fill="#E1E1E6"/>
<path d="M33.9263 21.2977C33.9739 21.1745 34 21.0401 34 20.9001H33.3117L33.9263 21.2977Z" fill="#E1E1E6"/>
<path d="M31.2885 20.9001H29.2654L30.9654 22H32.9033C32.9285 22 32.9593 21.9984 32.984 21.9967L31.2885 20.9001Z" fill="#E1E1E6"/>
</g>
<defs>
<clipPath id="clip0">
<rect width="34" height="22" fill="white"/>
</clipPath>
</defs>
</svg>
