<svg width="203" height="64" viewBox="0 0 203 64" fill="none" xmlns="http://www.w3.org/2000/svg">
<path d="M57.0431 46.4285H10.6384C4.76674 46.4285 0 41.2064 0 34.7848V19.9769C0 13.5553 4.76674 8.33325 10.6384 8.33325H57.1483C63.0094 8.33325 67.7761 13.5036 67.7761 19.9769V34.7848C67.6814 41.2064 62.9042 46.4285 57.0431 46.4285Z" fill="#FFCA28"/>
<path d="M177.663 45.3415C174.914 45.4029 172.17 45.096 169.499 44.4286C165.764 43.397 162.385 41.3244 159.743 38.4439C156.023 34.7429 153.519 29.9593 152.575 24.7502C152.276 22.869 152.276 20.951 152.575 19.0698C154.267 6.89759 166.314 0.710046 176.767 0.101435C177.364 0.101435 177.962 0 178.559 0C191.004 0 200.163 6.79616 201.955 17.4468C203.349 26.3731 200.959 35.908 194.886 45.0372C192.992 47.8301 190.896 50.4748 188.614 52.9492C188.614 52.9761 188.604 53.0019 188.585 53.0209C188.566 53.0399 188.541 53.0506 188.515 53.0506L188.714 53.2535L185.628 55.8908L184.532 57.0066H184.333L176.767 63.4984L177.663 45.3415Z" fill="white"/>
<path d="M199.611 17.6545V17.4557C197.737 6.32457 186.888 1.85222 177.026 2.44854C168.545 2.94546 158.979 7.41781 155.921 15.965H156.217C156.868 15.8446 157.528 15.7781 158.19 15.7662H160.359C163.417 9.90244 170.715 6.8215 177.322 6.42395C185.508 5.92703 194.384 9.40552 195.863 18.2508V18.3502C197.244 27.3943 193.398 35.6433 189.847 40.9107C188.19 43.3991 186.308 45.7279 184.226 47.8677L183.831 48.2652L184.127 42.6002V42.5009C184.122 41.6415 183.846 40.806 183.338 40.1156C182.956 39.5325 182.405 39.0816 181.76 38.8236C181.319 38.6325 180.855 38.4989 180.379 38.4261H179.679C174.65 38.6248 169.62 38.5254 164.689 38.923C166.409 40.1129 168.307 41.0188 170.31 41.6064C173.44 42.3634 176.666 42.6316 179.877 42.4015H180.074C180.086 42.5067 180.119 42.6082 180.172 42.6996L179.383 57.5081L183.624 53.9302H183.723L184.314 53.3339L185.794 52.1413L185.695 52.0419L187.174 50.5511C189.409 48.2275 191.423 45.6988 193.19 42.9978C198.624 34.6494 200.893 25.8041 199.611 17.6545Z" fill="#FFCA28"/>
<path d="M14.7903 13.1811C16.0435 13.1609 17.2906 13.3627 18.4767 13.7774C19.4071 14.1179 20.2882 14.586 21.096 15.1688C21.7446 15.6716 22.275 16.3169 22.6482 17.0572C22.9737 17.6717 23.1718 18.3484 23.2302 19.045C23.2428 19.262 23.1733 19.4755 23.0362 19.6413C22.9599 19.7171 22.868 19.7743 22.7673 19.8087C22.6665 19.8431 22.5595 19.8538 22.4541 19.8401H20.3102C20.0387 19.8469 19.7706 19.7782 19.5341 19.6413C19.3401 19.542 19.2431 19.3432 19.0491 19.045C18.6873 18.4621 18.1865 17.9832 17.5939 17.6536C16.7277 17.1931 15.7541 16.9867 14.7806 17.0572C14.2579 17.0682 13.7377 17.1348 13.2285 17.256C12.7875 17.3606 12.363 17.5278 11.9673 17.753C11.6141 17.9362 11.3133 18.2101 11.0942 18.5481C10.8957 18.8758 10.7946 19.2557 10.8032 19.6413C10.7829 20.0596 10.8842 20.4747 11.0942 20.834C11.3284 21.1965 11.6677 21.4746 12.0643 21.6291C12.6647 21.871 13.2805 22.0702 13.9075 22.2255C14.6836 22.4242 15.6537 22.623 16.7208 22.9212C17.8156 23.1505 18.8873 23.4832 19.9222 23.9151C20.7188 24.2419 21.4692 24.6764 22.1534 25.2071C22.7092 25.6898 23.142 26.3038 23.4145 26.9961C23.692 27.7238 23.8239 28.5012 23.8026 29.2821C23.8063 30.2099 23.6074 31.1267 23.2205 31.9656C22.8051 32.7911 22.2071 33.5058 21.4743 34.0527C20.6071 34.6533 19.6595 35.122 18.661 35.4442C17.4271 35.7816 16.1547 35.9487 14.8776 35.9411C13.7657 35.9621 12.6561 35.8284 11.5793 35.5436C10.5907 35.2858 9.64329 34.8842 8.76599 34.3509C7.98182 33.8459 7.31869 33.1665 6.82578 32.3631C6.33562 31.5865 6.03608 30.6999 5.95269 29.779C5.94009 29.5621 6.00958 29.3485 6.14671 29.1827C6.22297 29.107 6.31488 29.0498 6.41564 29.0154C6.51639 28.981 6.62341 28.9702 6.72877 28.9839H8.863C9.13447 28.9772 9.40265 29.0458 9.63908 29.1827C9.75485 29.2437 9.85745 29.3279 9.94078 29.4303C10.0241 29.5328 10.0865 29.6514 10.1241 29.779C10.2272 30.0772 10.3928 30.3485 10.6092 30.5741C10.8348 30.8813 11.1362 31.1214 11.4823 31.2699C11.9055 31.5103 12.3643 31.6782 12.8404 31.7668C13.4793 31.8976 14.1291 31.9642 14.7806 31.9656C15.3966 31.9821 16.0129 31.9488 16.6238 31.8662C17.1577 31.7606 17.6784 31.5939 18.176 31.3692C18.5843 31.1876 18.9486 30.9161 19.2431 30.5741C19.384 30.4131 19.4911 30.2242 19.5579 30.019C19.6246 29.8139 19.6496 29.5969 19.6311 29.3815C19.6585 29.1806 19.6374 28.976 19.5697 28.7854C19.5021 28.5948 19.39 28.4241 19.2431 28.2882C18.8289 27.9593 18.3718 27.6917 17.885 27.4931C17.3029 27.2943 16.5268 27.0955 15.6537 26.8967C14.7806 26.698 13.8105 26.4992 12.6464 26.201C11.4823 25.9029 10.7062 25.6047 9.93011 25.3065C9.22172 24.9818 8.56711 24.5459 7.98991 24.0145C7.49339 23.5002 7.09816 22.8928 6.82578 22.2255C6.53234 21.433 6.40028 20.5874 6.43774 19.7407C6.43404 18.813 6.63292 17.8961 7.0198 17.0572C7.43527 16.2317 8.03322 15.517 8.76599 14.9701C9.55101 14.3498 10.4381 13.8785 11.3853 13.5786C12.4992 13.2986 13.6434 13.165 14.7903 13.1811Z" fill="black"/>
<path d="M31.8935 29.5535V35.0447C31.8587 35.2716 31.7455 35.4818 31.571 35.6439C31.3964 35.8059 31.1698 35.911 30.9254 35.9433H28.3436C28.0992 35.911 27.8727 35.8059 27.6981 35.6439C27.5235 35.4818 27.4103 35.2716 27.3755 35.0447V14.0783C27.4103 13.8514 27.5235 13.6411 27.6981 13.4791C27.8727 13.3171 28.0992 13.212 28.3436 13.1797H30.9254C31.1698 13.212 31.3964 13.3171 31.571 13.4791C31.7455 13.6411 31.8587 13.8514 31.8935 14.0783V24.1621L37.5949 19.869C37.7025 19.7691 37.9176 19.6693 38.1328 19.4696C38.4002 19.3448 38.6941 19.2766 38.9934 19.2699H42.4249C42.5246 19.2672 42.6239 19.2834 42.7166 19.3175C42.8093 19.3517 42.8935 19.403 42.964 19.4685C43.0345 19.5339 43.0899 19.6121 43.1267 19.6981C43.1635 19.7842 43.1809 19.8763 43.1779 19.9688V20.2683C43.1779 20.3682 43.0704 20.468 42.8552 20.5679L34.8948 26.5583L43.6082 34.3458L43.9309 34.6454C43.9309 34.7452 44.0385 34.845 44.0385 34.9449C44.0415 35.0374 44.0241 35.1295 43.9873 35.2156C43.9505 35.3016 43.8951 35.3798 43.8246 35.4452C43.7541 35.5107 43.6699 35.562 43.5772 35.5962C43.4844 35.6303 43.3852 35.6465 43.2855 35.6438H39.9507C39.6515 35.6371 39.3576 35.5689 39.0902 35.4441C38.8686 35.3693 38.6796 35.2289 38.5523 35.0447L31.8935 29.5535Z" fill="black"/>
<path d="M50.6203 34.914L44.0388 20.2735V20.073C44.0726 19.8451 44.1826 19.634 44.3521 19.4712C44.5217 19.3085 44.7417 19.2029 44.9791 19.1705H47.3714C47.5087 19.167 47.6451 19.192 47.7714 19.2439C47.8976 19.2959 48.0106 19.3735 48.1027 19.4713C48.2727 19.6125 48.4143 19.7825 48.5205 19.9727L52.9082 29.9002L57.2958 19.9727C57.402 19.7825 57.5437 19.6125 57.7137 19.4713C57.8057 19.3735 57.9187 19.2959 58.045 19.2439C58.1712 19.192 58.3077 19.167 58.445 19.1705H60.9522C61.1896 19.2029 61.4096 19.3085 61.5791 19.4712C61.7487 19.634 61.8586 19.8451 61.8924 20.073V20.2735L52.4903 41.1312C52.3841 41.3214 52.2425 41.4914 52.0724 41.6326C51.9804 41.7305 51.8674 41.808 51.7412 41.86C51.6149 41.9119 51.4785 41.937 51.3412 41.9334H48.8339C48.5965 41.901 48.3765 41.7954 48.207 41.6327C48.0375 41.47 47.9275 41.2588 47.8937 41.0309V40.8304L50.6203 34.914Z" fill="black"/>
<path d="M89.4356 31.7952C89.6752 31.828 89.8973 31.9344 90.0685 32.0986C90.2396 32.2628 90.3506 32.4759 90.3848 32.7058V35.0327C90.3506 35.2626 90.2396 35.4757 90.0685 35.6399C89.8973 35.8041 89.6752 35.9105 89.4356 35.9433H74.6706C74.4309 35.9105 74.2088 35.8041 74.0377 35.6399C73.8665 35.4757 73.7555 35.2626 73.7214 35.0327V14.0902C73.7555 13.8603 73.8665 13.6473 74.0377 13.4831C74.2088 13.3189 74.4309 13.2124 74.6706 13.1797H77.4127C77.6523 13.2124 77.8744 13.3189 78.0456 13.4831C78.2167 13.6473 78.3277 13.8603 78.3618 14.0902V31.7952H89.4356Z" fill="black"/>
<path d="M96.574 13.1797C96.8144 13.2121 97.0372 13.3177 97.2089 13.4804C97.3806 13.6432 97.4919 13.8543 97.5262 14.0822V16.5892C97.4919 16.8171 97.3806 17.0283 97.2089 17.191C97.0372 17.3538 96.8144 17.4593 96.574 17.4917H93.7174C93.477 17.4593 93.2542 17.3538 93.0825 17.191C92.9108 17.0283 92.7994 16.8171 92.7652 16.5892V14.0822C92.7994 13.8543 92.9108 13.6432 93.0825 13.4804C93.2542 13.3177 93.477 13.2121 93.7174 13.1797H96.574ZM97.3146 35.0408C97.2803 35.2686 97.169 35.4798 96.9973 35.6425C96.8256 35.8053 96.6028 35.9108 96.3624 35.9433H93.8126C93.5722 35.9108 93.3494 35.8053 93.1777 35.6425C93.006 35.4798 92.8946 35.2686 92.8604 35.0408V20.099C92.8946 19.8711 93.006 19.66 93.1777 19.4972C93.3494 19.3345 93.5722 19.2289 93.8126 19.1965H96.3518C96.5922 19.2289 96.815 19.3345 96.9867 19.4972C97.1584 19.66 97.2698 19.8711 97.304 20.099L97.3146 35.0408Z" fill="black"/>
<path d="M116.57 35.0561C116.538 35.2801 116.434 35.4877 116.275 35.6477C116.115 35.8077 115.907 35.9114 115.684 35.9433H113.31C113.086 35.9114 112.879 35.8077 112.719 35.6477C112.559 35.4877 112.455 35.2801 112.423 35.0561V27.0708C112.474 25.982 112.162 24.9073 111.537 24.0147C111.224 23.6155 110.818 23.2991 110.354 23.0929C109.891 22.8867 109.384 22.7971 108.878 22.8317C108.374 22.8173 107.874 22.9162 107.414 23.1209C106.954 23.3256 106.545 23.6311 106.218 24.0147C105.559 24.8948 105.212 25.9706 105.234 27.0708V35.0561C105.202 35.2801 105.098 35.4877 104.938 35.6477C104.778 35.8077 104.571 35.9114 104.347 35.9433H101.983C101.759 35.9114 101.552 35.8077 101.392 35.6477C101.232 35.4877 101.129 35.2801 101.097 35.0561V20.3671C101.129 20.1431 101.232 19.9355 101.392 19.7755C101.552 19.6155 101.759 19.5117 101.983 19.4798H104.347C104.571 19.5117 104.778 19.6155 104.938 19.7755C105.098 19.9355 105.202 20.1431 105.234 20.3671V21.0572C105.79 20.512 106.42 20.0474 107.105 19.677C107.935 19.2878 108.85 19.1181 109.764 19.1841C110.877 19.1524 111.984 19.3539 113.014 19.7756C113.835 20.1025 114.55 20.648 115.083 21.3529C115.6 22.0604 115.968 22.8652 116.166 23.7189C116.367 24.6585 116.466 25.617 116.462 26.5779V35.0561H116.57Z" fill="black"/>
<path d="M128.972 39.2288C129.423 39.2045 129.87 39.1377 130.309 39.0292C130.768 38.8977 131.193 38.6588 131.551 38.3307C131.914 38.0385 132.208 37.6629 132.41 37.233C132.638 36.7325 132.768 36.1898 132.793 35.6364V34.4389C132.591 34.6626 132.366 34.8633 132.124 35.0376C131.819 35.2591 131.5 35.4591 131.169 35.6364C130.746 35.8621 130.296 36.0298 129.832 36.1353C129.266 36.2621 128.69 36.3289 128.112 36.3349C127.158 36.349 126.213 36.1447 125.343 35.7361C124.528 35.3442 123.81 34.7641 123.241 34.0397C122.651 33.3394 122.197 32.526 121.904 31.6447C121.613 30.739 121.42 29.8016 121.331 28.8506V26.6552C121.327 25.6916 121.523 24.7385 121.904 23.861C122.235 22.9983 122.685 22.1913 123.241 21.466C123.836 20.7704 124.548 20.1953 125.343 19.7696C126.213 19.3611 127.158 19.1567 128.112 19.1709C128.69 19.1768 129.266 19.2437 129.832 19.3704C130.296 19.4759 130.746 19.6436 131.169 19.8694C131.5 20.0467 131.819 20.2467 132.124 20.4681C132.366 20.6424 132.591 20.8431 132.793 21.0669V20.3683C132.823 20.1416 132.924 19.9314 133.079 19.7695C133.234 19.6075 133.435 19.5025 133.652 19.4702H135.944C136.161 19.5025 136.363 19.6075 136.518 19.7695C136.673 19.9314 136.773 20.1416 136.804 20.3683V35.337C136.804 37.9315 136.135 39.8276 134.703 41.1249C133.1 42.5186 131.054 43.2311 128.972 43.1207C128.003 43.1488 127.035 43.014 126.107 42.7215C125.29 42.4443 124.517 42.0406 123.814 41.524C123.214 41.0966 122.695 40.555 122.286 39.9274C121.925 39.3586 121.696 38.7092 121.618 38.0313C121.637 37.8193 121.703 37.6146 121.809 37.4326C121.88 37.3451 121.968 37.2735 122.066 37.2221C122.164 37.1707 122.272 37.1405 122.382 37.1332H124.483C124.765 37.1257 125.039 37.2331 125.247 37.4326C125.434 37.6064 125.595 37.8082 125.725 38.0313C126.004 38.4109 126.364 38.7182 126.775 38.9295C127.484 39.1698 128.228 39.2713 128.972 39.2288ZM125.247 26.8548C125.152 27.4493 125.152 28.0564 125.247 28.651C125.253 29.2112 125.366 29.7645 125.579 30.2786C125.792 30.7927 126.102 31.2571 126.489 31.6447C127.214 32.2643 128.132 32.5839 129.068 32.5428C129.972 32.5668 130.854 32.2477 131.551 31.6447C131.904 31.2983 132.188 30.8814 132.385 30.4187C132.582 29.9559 132.688 29.4567 132.697 28.9504C132.697 28.651 132.793 28.2518 132.793 27.7529C132.817 27.351 132.785 26.9475 132.697 26.5554C132.657 25.5664 132.246 24.6339 131.551 23.9608C130.864 23.328 129.983 22.9739 129.068 22.9629C128.136 22.9548 127.229 23.2708 126.489 23.861C125.778 24.6939 125.343 25.7435 125.247 26.8548Z" fill="black"/>
<path d="M140.375 20.0579C140.41 19.8337 140.524 19.626 140.699 19.466C140.875 19.3059 141.103 19.2021 141.349 19.1702H143.946C144.191 19.2021 144.419 19.3059 144.595 19.466C144.771 19.626 144.884 19.8337 144.919 20.0579V28.0471C144.881 29.1209 145.181 30.1821 145.785 31.1048C146.113 31.5203 146.557 31.8489 147.07 32.0568C147.583 32.2648 148.148 32.3447 148.707 32.2884C149.245 32.3126 149.783 32.2177 150.273 32.0116C150.763 31.8054 151.19 31.4943 151.52 31.1048C152.206 30.2117 152.549 29.1365 152.494 28.0471V20.0579C152.529 19.8337 152.642 19.626 152.818 19.466C152.994 19.3059 153.222 19.2021 153.467 19.1702H156.064C156.31 19.2021 156.538 19.3059 156.714 19.466C156.889 19.626 157.003 19.8337 157.038 20.0579V34.7542C157.003 34.9783 156.889 35.186 156.714 35.3461C156.538 35.5062 156.31 35.61 156.064 35.6419H153.467C153.222 35.61 152.994 35.5062 152.818 35.3461C152.642 35.186 152.529 34.9783 152.494 34.7542V34.0638C151.91 34.5686 151.255 34.9998 150.546 35.346C149.68 35.7604 148.711 35.9642 147.733 35.9378C146.544 35.9803 145.361 35.778 144.27 35.346C143.417 34.9905 142.674 34.4484 142.106 33.7679C141.538 33.0601 141.133 32.2548 140.916 31.4007C140.695 30.4606 140.587 29.5016 140.591 28.5403V20.0579H140.375Z" fill="black"/>
<path d="M161.559 23.3387C161.684 22.8609 161.875 22.4038 162.127 21.9816C162.431 21.4398 162.851 20.9758 163.356 20.6244C163.976 20.1921 164.642 19.8343 165.341 19.558C167.135 19.0409 169.032 19.0409 170.826 19.558C171.627 19.822 172.367 20.2509 173 20.8183C173.578 21.4137 174.057 22.1012 174.419 22.854C174.737 23.7551 174.897 24.7069 174.892 25.6653V34.7778C174.861 34.9981 174.761 35.2022 174.608 35.3596C174.455 35.5169 174.255 35.6189 174.041 35.6503H171.771C171.556 35.6189 171.357 35.5169 171.204 35.3596C171.05 35.2022 170.951 34.9981 170.92 34.7778V33.7114C170.43 34.3476 169.819 34.8752 169.124 35.2625C168.179 35.7234 167.144 35.9556 166.098 35.9411C165.293 35.9624 164.492 35.831 163.734 35.5533C163.11 35.3488 162.531 35.0193 162.032 34.5839C161.551 34.176 161.191 33.6389 160.992 33.0329C160.722 32.425 160.593 31.7615 160.614 31.094C160.582 30.4456 160.703 29.7989 160.967 29.2084C161.23 28.618 161.628 28.101 162.127 27.7011C163.292 26.8135 164.659 26.2462 166.098 26.0531L171.015 25.1806C171.045 24.8238 170.983 24.4651 170.833 24.1413C170.683 23.8176 170.452 23.5406 170.164 23.3387C169.565 22.975 168.873 22.806 168.178 22.854C167.792 22.8546 167.409 22.9201 167.043 23.0479C166.739 23.2076 166.453 23.4027 166.192 23.6296C166.003 23.8234 165.814 23.9204 165.72 24.0173C165.574 24.0957 165.41 24.1294 165.247 24.1143H162.41C162.235 24.111 162.067 24.042 161.937 23.9204C161.559 23.7265 161.559 23.5326 161.559 23.3387ZM166.665 32.0634C167.276 32.0773 167.885 31.9788 168.462 31.7726C168.933 31.5725 169.378 31.312 169.786 30.9971C170.17 30.6984 170.464 30.2954 170.637 29.8338C170.82 29.44 170.917 29.0098 170.92 28.5736V28.2827L166.854 29.0583C166.206 29.1128 165.585 29.3474 165.058 29.7369C164.878 29.8684 164.732 30.0432 164.633 30.2461C164.534 30.4489 164.485 30.6735 164.49 30.9001C164.481 31.114 164.541 31.325 164.66 31.5004C164.78 31.6758 164.953 31.8056 165.152 31.8696C165.638 32.0415 166.153 32.1076 166.665 32.0634Z" fill="black"/>
<path d="M9.31109 57.8317C8.62066 57.8317 8.03057 57.7205 7.54084 57.4979C7.05112 57.2676 6.67378 56.9184 6.40885 56.4502C6.14391 55.9743 5.99539 55.3795 5.96328 54.6657C5.95525 54.328 5.95123 54.0056 5.95123 53.6986C5.95123 53.3839 5.95525 53.0577 5.96328 52.72C5.99539 52.0138 6.14793 51.4267 6.42089 50.9585C6.70188 50.4826 7.08724 50.1295 7.57697 49.8993C8.07473 49.6614 8.65277 49.5424 9.31109 49.5424C9.96139 49.5424 10.5314 49.6614 11.0211 49.8993C11.5189 50.1295 11.9083 50.4826 12.1893 50.9585C12.4702 51.4267 12.6228 52.0138 12.6469 52.72C12.6629 53.0577 12.671 53.3839 12.671 53.6986C12.671 54.0056 12.6629 54.328 12.6469 54.6657C12.6228 55.3795 12.4743 55.9743 12.2013 56.4502C11.9364 56.9184 11.559 57.2676 11.0693 57.4979C10.5796 57.7205 9.9935 57.8317 9.31109 57.8317ZM9.31109 56.8531C9.92125 56.8531 10.419 56.6766 10.8044 56.3235C11.1978 55.9705 11.4105 55.3987 11.4426 54.6081C11.4587 54.2627 11.4667 53.9557 11.4667 53.6871C11.4667 53.4108 11.4587 53.1037 11.4426 52.766C11.4266 52.2364 11.3222 51.8066 11.1295 51.4766C10.9449 51.1465 10.696 50.9048 10.3829 50.7512C10.0698 50.5977 9.71251 50.521 9.31109 50.521C8.90968 50.521 8.55242 50.5977 8.23931 50.7512C7.9262 50.9048 7.67331 51.1465 7.48063 51.4766C7.29598 51.8066 7.19161 52.2364 7.16753 52.766C7.1595 53.1037 7.15548 53.4108 7.15548 53.6871C7.15548 53.9557 7.1595 54.2627 7.16753 54.6081C7.19964 55.3987 7.41239 55.9705 7.80578 56.3235C8.19917 56.6766 8.70094 56.8531 9.31109 56.8531Z" fill="black"/>
<path d="M16.919 57.8317C16.3009 57.8317 15.783 57.7205 15.3656 57.4979C14.9561 57.2676 14.643 56.9452 14.4262 56.5308C14.2175 56.1086 14.1051 55.6212 14.0891 55.0686C14.081 54.8384 14.077 54.6081 14.077 54.3778C14.077 54.1476 14.081 53.9173 14.0891 53.6871C14.0891 52.9886 14.1493 52.4091 14.2697 51.9486C14.3901 51.4804 14.5708 51.1005 14.8116 50.8088C15.0605 50.5095 15.3736 50.2677 15.7509 50.0835C16.1283 49.8916 16.5738 49.7266 17.0876 49.5884C17.6015 49.4426 18.1875 49.2891 18.8458 49.1279C18.9181 49.1126 18.9863 49.1241 19.0506 49.1625C19.1228 49.2008 19.163 49.2546 19.171 49.3236L19.2673 49.7957C19.2834 49.8647 19.2713 49.9262 19.2312 49.9799C19.1991 50.0336 19.1469 50.0681 19.0747 50.0835C18.4725 50.2293 17.9467 50.356 17.4971 50.4634C17.0475 50.5709 16.6702 50.6975 16.3651 50.8434C16.06 50.9815 15.8151 51.1619 15.6305 51.3845C15.4539 51.607 15.3294 51.9025 15.2572 52.271C15.1849 52.6394 15.1608 53.1114 15.1849 53.6871L14.932 53.5834C14.9641 53.2918 15.0846 53.0308 15.2933 52.8006C15.5101 52.5703 15.779 52.3823 16.1002 52.2364C16.4213 52.0906 16.7625 52.0177 17.1238 52.0177C17.6777 52.0177 18.1434 52.129 18.5207 52.3516C18.9061 52.5741 19.1991 52.8773 19.3998 53.2611C19.6085 53.6448 19.7249 54.0862 19.749 54.5851C19.7651 54.846 19.7651 55.0725 19.749 55.2643C19.7249 55.7632 19.6045 56.2084 19.3878 56.5999C19.171 56.9836 18.8579 57.2868 18.4484 57.5094C18.039 57.7243 17.5292 57.8317 16.919 57.8317ZM16.919 56.9798C17.4248 56.9798 17.8262 56.8301 18.1233 56.5308C18.4203 56.2238 18.5769 55.7863 18.593 55.2183C18.601 55.1415 18.605 55.0533 18.605 54.9535C18.605 54.8537 18.601 54.7501 18.593 54.6426C18.5769 54.0593 18.4203 53.618 18.1233 53.3186C17.8343 53.0193 17.469 52.8696 17.0274 52.8696C16.5216 52.8696 16.1042 53.0193 15.775 53.3186C15.4458 53.618 15.2692 54.0593 15.2451 54.6426C15.2371 54.7501 15.2331 54.8537 15.2331 54.9535C15.2331 55.0533 15.2371 55.1415 15.2451 55.2183C15.2692 55.7863 15.4298 56.2238 15.7268 56.5308C16.0239 56.8301 16.4213 56.9798 16.919 56.9798Z" fill="black"/>
<path d="M28.9502 59.1673C28.8699 59.1673 28.8016 59.1404 28.7454 59.0867C28.6973 59.0406 28.6732 58.9792 28.6732 58.9025V57.7166H21.544C21.4637 57.7166 21.3955 57.6936 21.3393 57.6475C21.2911 57.5938 21.267 57.5286 21.267 57.4518V51.9947C21.267 51.9179 21.2911 51.8565 21.3393 51.8104C21.3955 51.7567 21.4637 51.7299 21.544 51.7299H22.098C22.1783 51.7299 22.2425 51.7567 22.2907 51.8104C22.3469 51.8565 22.375 51.9179 22.375 51.9947V56.7956H24.5787V51.9947C24.5787 51.9179 24.6028 51.8565 24.651 51.8104C24.7072 51.7567 24.7754 51.7299 24.8557 51.7299H25.3615C25.4498 51.7299 25.5181 51.7567 25.5662 51.8104C25.6144 51.8565 25.6385 51.9179 25.6385 51.9947V56.7956H27.8423V51.9947C27.8423 51.9179 27.8663 51.8565 27.9145 51.8104C27.9707 51.7567 28.039 51.7299 28.1192 51.7299H28.6732C28.7535 51.7299 28.8177 51.7567 28.8659 51.8104C28.9221 51.8565 28.9502 51.9179 28.9502 51.9947V56.7956H29.5282C29.6085 56.7956 29.6727 56.8224 29.7209 56.8762C29.7771 56.9222 29.8052 56.9836 29.8052 57.0604V58.9025C29.8052 58.9792 29.7771 59.0406 29.7209 59.0867C29.6727 59.1404 29.6085 59.1673 29.5282 59.1673H28.9502Z" fill="black"/>
<path d="M32.8095 57.8317C32.4081 57.8317 32.0428 57.755 31.7136 57.6015C31.3845 57.448 31.1195 57.2407 30.9188 56.9798C30.7181 56.7188 30.6178 56.4233 30.6178 56.0933C30.6178 55.5637 30.8426 55.1415 31.2922 54.8269C31.7417 54.5122 32.3278 54.3049 33.0504 54.2051L34.8447 53.9634V53.6295C34.8447 53.2611 34.7323 52.9733 34.5075 52.766C34.2907 52.5588 33.9335 52.4552 33.4357 52.4552C33.0825 52.4552 32.7935 52.5243 32.5687 52.6624C32.3439 52.8006 32.1873 52.9771 32.099 53.192C32.0508 53.3071 31.9665 53.3647 31.8461 53.3647H31.3042C31.2159 53.3647 31.1476 53.3417 31.0995 53.2956C31.0593 53.2419 31.0393 53.1805 31.0393 53.1114C31.0393 52.9963 31.0834 52.8543 31.1717 52.6854C31.2681 52.5166 31.4126 52.3516 31.6053 52.1904C31.7979 52.0292 32.0428 51.8949 32.3399 51.7874C32.6449 51.6723 33.0142 51.6147 33.4478 51.6147C33.9295 51.6147 34.3349 51.6761 34.6641 51.7989C34.9932 51.9141 35.2501 52.0714 35.4348 52.271C35.6275 52.4705 35.7639 52.6969 35.8442 52.9502C35.9325 53.2035 35.9767 53.4606 35.9767 53.7216V57.4518C35.9767 57.5286 35.9486 57.5938 35.8924 57.6475C35.8442 57.6936 35.78 57.7166 35.6997 57.7166H35.1458C35.0574 57.7166 34.9892 57.6936 34.941 57.6475C34.8929 57.5938 34.8688 57.5286 34.8688 57.4518V56.9568C34.7644 57.0949 34.6239 57.2331 34.4473 57.3712C34.2707 57.5017 34.0499 57.613 33.785 57.7051C33.52 57.7895 33.1949 57.8317 32.8095 57.8317ZM33.0624 56.9683C33.3916 56.9683 33.6926 56.903 33.9656 56.7725C34.2386 56.6344 34.4513 56.4233 34.6038 56.1393C34.7644 55.8553 34.8447 55.4984 34.8447 55.0686V54.7463L33.4478 54.942C32.8778 55.0187 32.4482 55.1492 32.1592 55.3334C31.8702 55.51 31.7257 55.7364 31.7257 56.0127C31.7257 56.2276 31.7899 56.408 31.9184 56.5538C32.0548 56.692 32.2234 56.7956 32.4242 56.8647C32.6329 56.9337 32.8456 56.9683 33.0624 56.9683Z" fill="black"/>
<path d="M37.9728 57.7166C37.9006 57.7166 37.8363 57.6936 37.7802 57.6475C37.732 57.5938 37.7079 57.5362 37.7079 57.4748V51.9947C37.7079 51.9179 37.732 51.8565 37.7802 51.8104C37.8363 51.7567 37.9046 51.7299 37.9849 51.7299H38.5629C38.6432 51.7299 38.7074 51.7567 38.7556 51.8104C38.8118 51.8565 38.8399 51.9179 38.8399 51.9947V56.8762L38.5147 56.5653L42.1636 51.9025C42.2038 51.8565 42.2479 51.8181 42.2961 51.7874C42.3443 51.749 42.4045 51.7299 42.4767 51.7299H43.0307C43.0949 51.7299 43.1511 51.7529 43.1993 51.7989C43.2555 51.845 43.2836 51.8987 43.2836 51.9601V57.4518C43.2836 57.5286 43.2555 57.5938 43.1993 57.6475C43.1511 57.6936 43.0869 57.7166 43.0066 57.7166H42.4406C42.3523 57.7166 42.2841 57.6936 42.2359 57.6475C42.1877 57.5938 42.1636 57.5286 42.1636 57.4518V52.8581L42.5008 52.8466L38.8279 57.5439C38.7957 57.5823 38.7556 57.6207 38.7074 57.659C38.6593 57.6974 38.595 57.7166 38.5147 57.7166H37.9728ZM40.5258 50.9355C40.0602 50.9355 39.6949 50.8664 39.43 50.7282C39.165 50.5901 38.9804 50.4135 38.876 50.1986C38.7717 49.976 38.7195 49.7419 38.7195 49.4963C38.7195 49.4349 38.7355 49.385 38.7676 49.3467C38.8078 49.3006 38.868 49.2776 38.9483 49.2776H39.3577C39.43 49.2776 39.4862 49.3006 39.5263 49.3467C39.5665 49.385 39.5865 49.4349 39.5865 49.4963C39.5865 49.6805 39.6508 49.8494 39.7792 50.0029C39.9077 50.1487 40.1565 50.2217 40.5258 50.2217C40.9112 50.2217 41.1641 50.1487 41.2845 50.0029C41.4049 49.8494 41.4652 49.6805 41.4652 49.4963C41.4652 49.4349 41.4852 49.385 41.5254 49.3467C41.5655 49.3006 41.6217 49.2776 41.694 49.2776H42.1155C42.1877 49.2776 42.2439 49.3006 42.2841 49.3467C42.3242 49.385 42.3443 49.4349 42.3443 49.4963C42.3443 49.7419 42.2881 49.976 42.1757 50.1986C42.0713 50.4135 41.8867 50.5901 41.6217 50.7282C41.3568 50.8664 40.9915 50.9355 40.5258 50.9355Z" fill="black"/>
<path d="M47.5752 57.8317C47.0052 57.8317 46.5115 57.7281 46.094 57.5209C45.6846 57.306 45.3674 57.0028 45.1426 56.6114C44.9178 56.2122 44.7974 55.7364 44.7814 55.1838C44.7733 55.0686 44.7693 54.9151 44.7693 54.7232C44.7693 54.5314 44.7733 54.3778 44.7814 54.2627C44.7974 53.7101 44.9178 53.2381 45.1426 52.8466C45.3674 52.4475 45.6846 52.1443 46.094 51.9371C46.5115 51.7222 47.0052 51.6147 47.5752 51.6147C48.0409 51.6147 48.4383 51.6761 48.7674 51.7989C49.1046 51.9217 49.3816 52.0791 49.5984 52.271C49.8151 52.4628 49.9757 52.6701 50.0801 52.8927C50.1925 53.1153 50.2527 53.3263 50.2607 53.5259C50.2687 53.6026 50.2447 53.664 50.1885 53.7101C50.1323 53.7561 50.064 53.7792 49.9837 53.7792H49.4057C49.3254 53.7792 49.2652 53.7638 49.2251 53.7331C49.1849 53.6947 49.1448 53.6333 49.1046 53.5489C48.9601 53.1728 48.7634 52.908 48.5145 52.7545C48.2657 52.601 47.9566 52.5243 47.5873 52.5243C47.1056 52.5243 46.7122 52.6662 46.4071 52.9502C46.1101 53.2342 45.9495 53.6909 45.9254 54.3203C45.9174 54.5966 45.9174 54.8652 45.9254 55.1262C45.9495 55.7632 46.1101 56.2238 46.4071 56.5077C46.7122 56.7841 47.1056 56.9222 47.5873 56.9222C47.9566 56.9222 48.2657 56.8455 48.5145 56.692C48.7634 56.5384 48.9601 56.2737 49.1046 55.8976C49.1448 55.8131 49.1849 55.7517 49.2251 55.7134C49.2652 55.675 49.3254 55.6558 49.4057 55.6558H49.9837C50.064 55.6558 50.1323 55.6827 50.1885 55.7364C50.2447 55.7824 50.2687 55.8438 50.2607 55.9206C50.2527 56.0818 50.2166 56.2468 50.1523 56.4156C50.0881 56.5845 49.9837 56.7572 49.8392 56.9337C49.7027 57.1026 49.5301 57.2561 49.3214 57.3942C49.1127 57.5247 48.8638 57.6322 48.5748 57.7166C48.2857 57.7934 47.9526 57.8317 47.5752 57.8317Z" fill="black"/>
<path d="M55.5926 57.7166C55.5043 57.7166 55.4361 57.6936 55.3879 57.6475C55.3397 57.5938 55.3156 57.5286 55.3156 57.4518V55.5752H53.9308V55.5176C53.1761 55.5176 52.6141 55.3411 52.2448 54.988C51.8835 54.6273 51.7029 54.1706 51.7029 53.618C51.7029 52.9733 51.8996 52.4974 52.293 52.1904C52.6944 51.8834 53.2965 51.7299 54.0994 51.7299H56.1707C56.2509 51.7299 56.3152 51.7567 56.3633 51.8104C56.4195 51.8565 56.4476 51.9179 56.4476 51.9947V57.4518C56.4476 57.5286 56.4195 57.5938 56.3633 57.6475C56.3152 57.6936 56.2509 57.7166 56.1707 57.7166H55.5926ZM51.7752 57.7166C51.7029 57.7166 51.6427 57.6936 51.5945 57.6475C51.5463 57.6015 51.5223 57.5478 51.5223 57.4864C51.5223 57.4557 51.5263 57.425 51.5343 57.3942C51.5504 57.3559 51.5744 57.3175 51.6066 57.2791L53.0396 55.2528L54.1957 55.3334L52.6663 57.5439C52.6342 57.5823 52.59 57.6207 52.5338 57.659C52.4776 57.6974 52.4174 57.7166 52.3532 57.7166H51.7752ZM53.9669 54.7117H55.3277V52.5933H54.0632C53.6136 52.5933 53.2805 52.6701 53.0637 52.8236C52.855 52.9694 52.7506 53.2342 52.7506 53.618C52.7506 53.9327 52.8469 54.1936 53.0396 54.4009C53.2403 54.6081 53.5494 54.7117 53.9669 54.7117Z" fill="black"/>
<path d="M63.7338 57.8317C63.1638 57.8317 62.6701 57.7281 62.2526 57.5209C61.8432 57.306 61.526 57.0028 61.3012 56.6114C61.0765 56.2122 60.956 55.7364 60.94 55.1838C60.9319 55.0686 60.9279 54.9151 60.9279 54.7232C60.9279 54.5314 60.9319 54.3778 60.94 54.2627C60.956 53.7101 61.0765 53.2381 61.3012 52.8466C61.526 52.4475 61.8432 52.1443 62.2526 51.9371C62.6701 51.7222 63.1638 51.6147 63.7338 51.6147C64.1995 51.6147 64.5969 51.6761 64.926 51.7989C65.2632 51.9217 65.5402 52.0791 65.757 52.271C65.9737 52.4628 66.1343 52.6701 66.2387 52.8927C66.3511 53.1153 66.4113 53.3263 66.4193 53.5259C66.4273 53.6026 66.4033 53.664 66.3471 53.7101C66.2909 53.7561 66.2226 53.7792 66.1423 53.7792H65.5643C65.484 53.7792 65.4238 53.7638 65.3837 53.7331C65.3435 53.6947 65.3034 53.6333 65.2632 53.5489C65.1187 53.1728 64.922 52.908 64.6731 52.7545C64.4243 52.601 64.1152 52.5243 63.7459 52.5243C63.2642 52.5243 62.8708 52.6662 62.5657 52.9502C62.2687 53.2342 62.1081 53.6909 62.084 54.3203C62.076 54.5966 62.076 54.8652 62.084 55.1262C62.1081 55.7632 62.2687 56.2238 62.5657 56.5077C62.8708 56.7841 63.2642 56.9222 63.7459 56.9222C64.1152 56.9222 64.4243 56.8455 64.6731 56.692C64.922 56.5384 65.1187 56.2737 65.2632 55.8976C65.3034 55.8131 65.3435 55.7517 65.3837 55.7134C65.4238 55.675 65.484 55.6558 65.5643 55.6558H66.1423C66.2226 55.6558 66.2909 55.6827 66.3471 55.7364C66.4033 55.7824 66.4273 55.8438 66.4193 55.9206C66.4113 56.0818 66.3752 56.2468 66.3109 56.4156C66.2467 56.5845 66.1423 56.7572 65.9978 56.9337C65.8613 57.1026 65.6887 57.2561 65.48 57.3942C65.2713 57.5247 65.0224 57.6322 64.7334 57.7166C64.4443 57.7934 64.1112 57.8317 63.7338 57.8317Z" fill="black"/>
<path d="M71.0662 57.7166C70.9859 57.7166 70.9217 57.6936 70.8735 57.6475C70.8254 57.6015 70.8013 57.5401 70.8013 57.4633V51.9486C70.8013 51.8872 70.8254 51.8373 70.8735 51.7989C70.9297 51.7529 70.9859 51.7299 71.0421 51.7299H71.6563C71.7848 51.7299 71.8851 51.7913 71.9574 51.9141L74.0046 55.5752L76.0639 51.9141C76.1361 51.7913 76.2365 51.7299 76.3649 51.7299H76.967C77.0313 51.7299 77.0875 51.7529 77.1356 51.7989C77.1838 51.8373 77.2079 51.8872 77.2079 51.9486V57.4633C77.2079 57.5401 77.1838 57.6015 77.1356 57.6475C77.0875 57.6936 77.0273 57.7166 76.955 57.7166H76.3649C76.2846 57.7166 76.2204 57.6936 76.1722 57.6475C76.1241 57.6015 76.1 57.5401 76.1 57.4633V52.8696L76.5215 52.9157L74.5585 56.4617C74.5184 56.5384 74.4702 56.6075 74.414 56.6689C74.3578 56.7303 74.2735 56.761 74.1611 56.761H73.848C73.7437 56.761 73.6634 56.7303 73.6072 56.6689C73.551 56.6075 73.4988 56.5384 73.4506 56.4617L71.5479 53.0884L71.9212 53.0538V57.4633C71.9212 57.5401 71.8971 57.6015 71.849 57.6475C71.8008 57.6936 71.7366 57.7166 71.6563 57.7166H71.0662Z" fill="black"/>
<path d="M79.2749 57.7166C79.2026 57.7166 79.1384 57.6936 79.0822 57.6475C79.034 57.5938 79.0099 57.5362 79.0099 57.4748V51.9947C79.0099 51.9179 79.034 51.8565 79.0822 51.8104C79.1384 51.7567 79.2066 51.7299 79.2869 51.7299H79.865C79.9452 51.7299 80.0095 51.7567 80.0576 51.8104C80.1138 51.8565 80.1419 51.9179 80.1419 51.9947V56.8762L79.8168 56.5653L83.4657 51.9025C83.5058 51.8565 83.55 51.8181 83.5981 51.7874C83.6463 51.749 83.7065 51.7299 83.7788 51.7299H84.3327C84.397 51.7299 84.4532 51.7529 84.5013 51.7989C84.5575 51.845 84.5856 51.8987 84.5856 51.9601V57.4518C84.5856 57.5286 84.5575 57.5938 84.5013 57.6475C84.4532 57.6936 84.3889 57.7166 84.3086 57.7166H83.7426C83.6543 57.7166 83.5861 57.6936 83.5379 57.6475C83.4898 57.5938 83.4657 57.5286 83.4657 57.4518V52.8581L83.8029 52.8466L80.1299 57.5439C80.0978 57.5823 80.0576 57.6207 80.0095 57.659C79.9613 57.6974 79.8971 57.7166 79.8168 57.7166H79.2749Z" fill="black"/>
<path d="M86.6374 59.9041C86.5571 59.9041 86.4888 59.8772 86.4326 59.8235C86.3845 59.7774 86.3604 59.716 86.3604 59.6393V51.9947C86.3604 51.9179 86.3845 51.8565 86.4326 51.8104C86.4888 51.7567 86.5571 51.7299 86.6374 51.7299H87.1913C87.2716 51.7299 87.3358 51.7567 87.384 51.8104C87.4402 51.8565 87.4683 51.9179 87.4683 51.9947V52.5012C87.661 52.2479 87.9179 52.0369 88.239 51.868C88.5602 51.6992 88.9616 51.6147 89.4433 51.6147C89.8929 51.6147 90.2742 51.6876 90.5873 51.8335C90.9084 51.9793 91.1694 52.1789 91.3701 52.4321C91.5788 52.6854 91.7354 52.9733 91.8397 53.2956C91.9441 53.618 92.0043 53.9634 92.0204 54.3318C92.0284 54.4546 92.0324 54.5851 92.0324 54.7232C92.0324 54.8614 92.0284 54.9919 92.0204 55.1147C92.0043 55.4754 91.9441 55.8208 91.8397 56.1508C91.7354 56.4732 91.5788 56.761 91.3701 57.0143C91.1694 57.2599 90.9084 57.4595 90.5873 57.613C90.2742 57.7588 89.8929 57.8317 89.4433 57.8317C88.9776 57.8317 88.5842 57.7512 88.2631 57.59C87.95 57.4211 87.6931 57.2139 87.4924 56.9683V59.6393C87.4924 59.716 87.4683 59.7774 87.4201 59.8235C87.372 59.8772 87.3077 59.9041 87.2274 59.9041H86.6374ZM89.1904 56.8992C89.6078 56.8992 89.933 56.8148 90.1658 56.6459C90.4067 56.4694 90.5793 56.2429 90.6836 55.9666C90.788 55.6827 90.8482 55.3795 90.8643 55.0571C90.8723 54.8345 90.8723 54.6119 90.8643 54.3894C90.8482 54.067 90.788 53.7677 90.6836 53.4913C90.5793 53.2074 90.4067 52.9809 90.1658 52.8121C89.933 52.6355 89.6078 52.5473 89.1904 52.5473C88.797 52.5473 88.4759 52.6355 88.227 52.8121C87.9861 52.9886 87.8055 53.215 87.6851 53.4913C87.5727 53.76 87.5084 54.0363 87.4924 54.3203C87.4844 54.4431 87.4803 54.5889 87.4803 54.7578C87.4803 54.9266 87.4844 55.0763 87.4924 55.2068C87.5004 55.4754 87.5646 55.7402 87.6851 56.0012C87.8135 56.2621 88.0022 56.477 88.2511 56.6459C88.4999 56.8148 88.813 56.8992 89.1904 56.8992Z" fill="black"/>
<path d="M96.0872 57.8317C95.477 57.8317 94.9672 57.7205 94.5578 57.4979C94.1483 57.2753 93.8352 56.9683 93.6184 56.5768C93.4017 56.1777 93.2813 55.7249 93.2572 55.2183C93.2491 55.0878 93.2451 54.9228 93.2451 54.7232C93.2451 54.516 93.2491 54.351 93.2572 54.2282C93.2813 53.7139 93.4017 53.2611 93.6184 52.8696C93.8432 52.4782 94.1604 52.1712 94.5698 51.9486C94.9792 51.726 95.485 51.6147 96.0872 51.6147C96.6893 51.6147 97.1951 51.726 97.6045 51.9486C98.014 52.1712 98.3271 52.4782 98.5438 52.8696C98.7686 53.2611 98.8931 53.7139 98.9172 54.2282C98.9252 54.351 98.9292 54.516 98.9292 54.7232C98.9292 54.9228 98.9252 55.0878 98.9172 55.2183C98.8931 55.7249 98.7726 56.1777 98.5559 56.5768C98.3391 56.9683 98.026 57.2753 97.6166 57.4979C97.2071 57.7205 96.6973 57.8317 96.0872 57.8317ZM96.0872 56.9452C96.5849 56.9452 96.9823 56.7956 97.2794 56.4962C97.5764 56.1892 97.737 55.7441 97.7611 55.1607C97.7691 55.0456 97.7731 54.8998 97.7731 54.7232C97.7731 54.5467 97.7691 54.4009 97.7611 54.2857C97.737 53.7024 97.5764 53.2611 97.2794 52.9617C96.9823 52.6547 96.5849 52.5012 96.0872 52.5012C95.5894 52.5012 95.188 52.6547 94.8829 52.9617C94.5859 53.2611 94.4293 53.7024 94.4133 54.2857C94.4052 54.4009 94.4012 54.5467 94.4012 54.7232C94.4012 54.8998 94.4052 55.0456 94.4133 55.1607C94.4293 55.7441 94.5859 56.1892 94.8829 56.4962C95.188 56.7956 95.5894 56.9452 96.0872 56.9452Z" fill="black"/>
<path d="M100.702 57.7166C100.622 57.7166 100.558 57.6936 100.509 57.6475C100.461 57.6015 100.437 57.5401 100.437 57.4633V51.9486C100.437 51.8872 100.461 51.8373 100.509 51.7989C100.566 51.7529 100.622 51.7299 100.678 51.7299H101.292C101.421 51.7299 101.521 51.7913 101.593 51.9141L103.64 55.5752L105.7 51.9141C105.772 51.7913 105.872 51.7299 106.001 51.7299H106.603C106.667 51.7299 106.723 51.7529 106.771 51.7989C106.82 51.8373 106.844 51.8872 106.844 51.9486V57.4633C106.844 57.5401 106.82 57.6015 106.771 57.6475C106.723 57.6936 106.663 57.7166 106.591 57.7166H106.001C105.92 57.7166 105.856 57.6936 105.808 57.6475C105.76 57.6015 105.736 57.5401 105.736 57.4633V52.8696L106.157 52.9157L104.194 56.4617C104.154 56.5384 104.106 56.6075 104.05 56.6689C103.994 56.7303 103.909 56.761 103.797 56.761H103.484C103.38 56.761 103.299 56.7303 103.243 56.6689C103.187 56.6075 103.135 56.5384 103.086 56.4617L101.184 53.0884L101.557 53.0538V57.4633C101.557 57.5401 101.533 57.6015 101.485 57.6475C101.437 57.6936 101.372 57.7166 101.292 57.7166H100.702Z" fill="black"/>
<path d="M111.875 57.7166C111.794 57.7166 111.726 57.6936 111.67 57.6475C111.622 57.5938 111.598 57.5286 111.598 57.4518V51.9947C111.598 51.9179 111.622 51.8565 111.67 51.8104C111.726 51.7567 111.794 51.7299 111.875 51.7299H112.453C112.533 51.7299 112.597 51.7567 112.645 51.8104C112.702 51.8565 112.73 51.9179 112.73 51.9947V54.2051H116.005V51.9947C116.005 51.9179 116.029 51.8565 116.077 51.8104C116.134 51.7567 116.202 51.7299 116.282 51.7299H116.848C116.928 51.7299 116.993 51.7567 117.041 51.8104C117.097 51.8565 117.125 51.9179 117.125 51.9947V57.4518C117.125 57.5286 117.097 57.5938 117.041 57.6475C116.993 57.6936 116.928 57.7166 116.848 57.7166H116.282C116.202 57.7166 116.134 57.6936 116.077 57.6475C116.029 57.5938 116.005 57.5286 116.005 57.4518V55.1262H112.73V57.4518C112.73 57.5286 112.702 57.5938 112.645 57.6475C112.597 57.6936 112.533 57.7166 112.453 57.7166H111.875Z" fill="black"/>
<path d="M120.682 57.8317C120.281 57.8317 119.915 57.755 119.586 57.6015C119.257 57.448 118.992 57.2407 118.792 56.9798C118.591 56.7188 118.49 56.4233 118.49 56.0933C118.49 55.5637 118.715 55.1415 119.165 54.8269C119.614 54.5122 120.2 54.3049 120.923 54.2051L122.717 53.9634V53.6295C122.717 53.2611 122.605 52.9733 122.38 52.766C122.163 52.5588 121.806 52.4552 121.308 52.4552C120.955 52.4552 120.666 52.5243 120.441 52.6624C120.217 52.8006 120.06 52.9771 119.972 53.192C119.924 53.3071 119.839 53.3647 119.719 53.3647H119.177C119.089 53.3647 119.02 53.3417 118.972 53.2956C118.932 53.2419 118.912 53.1805 118.912 53.1114C118.912 52.9963 118.956 52.8543 119.044 52.6854C119.141 52.5166 119.285 52.3516 119.478 52.1904C119.671 52.0292 119.915 51.8949 120.213 51.7874C120.518 51.6723 120.887 51.6147 121.32 51.6147C121.802 51.6147 122.208 51.6761 122.537 51.7989C122.866 51.9141 123.123 52.0714 123.307 52.271C123.5 52.4705 123.637 52.6969 123.717 52.9502C123.805 53.2035 123.849 53.4606 123.849 53.7216V57.4518C123.849 57.5286 123.821 57.5938 123.765 57.6475C123.717 57.6936 123.653 57.7166 123.572 57.7166H123.018C122.93 57.7166 122.862 57.6936 122.814 57.6475C122.766 57.5938 122.741 57.5286 122.741 57.4518V56.9568C122.637 57.0949 122.497 57.2331 122.32 57.3712C122.143 57.5017 121.923 57.613 121.658 57.7051C121.393 57.7895 121.068 57.8317 120.682 57.8317ZM120.935 56.9683C121.264 56.9683 121.565 56.903 121.838 56.7725C122.111 56.6344 122.324 56.4233 122.477 56.1393C122.637 55.8553 122.717 55.4984 122.717 55.0686V54.7463L121.32 54.942C120.75 55.0187 120.321 55.1492 120.032 55.3334C119.743 55.51 119.598 55.7364 119.598 56.0127C119.598 56.2276 119.663 56.408 119.791 56.5538C119.928 56.692 120.096 56.7956 120.297 56.8647C120.506 56.9337 120.718 56.9683 120.935 56.9683Z" fill="black"/>
<path d="M128.821 59.9041C128.741 59.9041 128.673 59.8772 128.617 59.8235C128.569 59.7774 128.544 59.716 128.544 59.6393V51.9947C128.544 51.9179 128.569 51.8565 128.617 51.8104C128.673 51.7567 128.741 51.7299 128.821 51.7299H129.375C129.456 51.7299 129.52 51.7567 129.568 51.8104C129.624 51.8565 129.652 51.9179 129.652 51.9947V52.5012C129.845 52.2479 130.102 52.0369 130.423 51.868C130.744 51.6992 131.146 51.6147 131.627 51.6147C132.077 51.6147 132.458 51.6876 132.771 51.8335C133.092 51.9793 133.353 52.1789 133.554 52.4321C133.763 52.6854 133.919 52.9733 134.024 53.2956C134.128 53.618 134.188 53.9634 134.204 54.3318C134.212 54.4546 134.216 54.5851 134.216 54.7232C134.216 54.8614 134.212 54.9919 134.204 55.1147C134.188 55.4754 134.128 55.8208 134.024 56.1508C133.919 56.4732 133.763 56.761 133.554 57.0143C133.353 57.2599 133.092 57.4595 132.771 57.613C132.458 57.7588 132.077 57.8317 131.627 57.8317C131.162 57.8317 130.768 57.7512 130.447 57.59C130.134 57.4211 129.877 57.2139 129.676 56.9683V59.6393C129.676 59.716 129.652 59.7774 129.604 59.8235C129.556 59.8772 129.492 59.9041 129.412 59.9041H128.821ZM131.374 56.8992C131.792 56.8992 132.117 56.8148 132.35 56.6459C132.591 56.4694 132.763 56.2429 132.868 55.9666C132.972 55.6827 133.032 55.3795 133.048 55.0571C133.056 54.8345 133.056 54.6119 133.048 54.3894C133.032 54.067 132.972 53.7677 132.868 53.4913C132.763 53.2074 132.591 52.9809 132.35 52.8121C132.117 52.6355 131.792 52.5473 131.374 52.5473C130.981 52.5473 130.66 52.6355 130.411 52.8121C130.17 52.9886 129.99 53.215 129.869 53.4913C129.757 53.76 129.693 54.0363 129.676 54.3203C129.668 54.4431 129.664 54.5889 129.664 54.7578C129.664 54.9266 129.668 55.0763 129.676 55.2068C129.684 55.4754 129.749 55.7402 129.869 56.0012C129.998 56.2621 130.186 56.477 130.435 56.6459C130.684 56.8148 130.997 56.8992 131.374 56.8992Z" fill="black"/>
<path d="M137.452 57.8317C137.051 57.8317 136.686 57.755 136.356 57.6015C136.027 57.448 135.762 57.2407 135.562 56.9798C135.361 56.7188 135.261 56.4233 135.261 56.0933C135.261 55.5637 135.485 55.1415 135.935 54.8269C136.385 54.5122 136.971 54.3049 137.693 54.2051L139.488 53.9634V53.6295C139.488 53.2611 139.375 52.9733 139.15 52.766C138.934 52.5588 138.576 52.4552 138.079 52.4552C137.725 52.4552 137.436 52.5243 137.211 52.6624C136.987 52.8006 136.83 52.9771 136.742 53.192C136.694 53.3071 136.609 53.3647 136.489 53.3647H135.947C135.859 53.3647 135.79 53.3417 135.742 53.2956C135.702 53.2419 135.682 53.1805 135.682 53.1114C135.682 52.9963 135.726 52.8543 135.815 52.6854C135.911 52.5166 136.055 52.3516 136.248 52.1904C136.441 52.0292 136.686 51.8949 136.983 51.7874C137.288 51.6723 137.657 51.6147 138.091 51.6147C138.572 51.6147 138.978 51.6761 139.307 51.7989C139.636 51.9141 139.893 52.0714 140.078 52.271C140.27 52.4705 140.407 52.6969 140.487 52.9502C140.575 53.2035 140.62 53.4606 140.62 53.7216V57.4518C140.62 57.5286 140.591 57.5938 140.535 57.6475C140.487 57.6936 140.423 57.7166 140.343 57.7166H139.789C139.7 57.7166 139.632 57.6936 139.584 57.6475C139.536 57.5938 139.512 57.5286 139.512 57.4518V56.9568C139.407 57.0949 139.267 57.2331 139.09 57.3712C138.913 57.5017 138.693 57.613 138.428 57.7051C138.163 57.7895 137.838 57.8317 137.452 57.8317ZM137.705 56.9683C138.034 56.9683 138.335 56.903 138.608 56.7725C138.881 56.6344 139.094 56.4233 139.247 56.1393C139.407 55.8553 139.488 55.4984 139.488 55.0686V54.7463L138.091 54.942C137.521 55.0187 137.091 55.1492 136.802 55.3334C136.513 55.51 136.369 55.7364 136.369 56.0127C136.369 56.2276 136.433 56.408 136.561 56.5538C136.698 56.692 136.866 56.7956 137.067 56.8647C137.276 56.9337 137.488 56.9683 137.705 56.9683Z" fill="black"/>
<path d="M142.628 57.7166C142.547 57.7166 142.479 57.6936 142.423 57.6475C142.375 57.5938 142.351 57.5286 142.351 57.4518V51.9947C142.351 51.9179 142.375 51.8565 142.423 51.8104C142.479 51.7567 142.547 51.7299 142.628 51.7299H145.133C145.887 51.7299 146.453 51.8757 146.831 52.1673C147.216 52.459 147.409 52.8505 147.409 53.3417C147.409 53.6871 147.34 53.948 147.204 54.1246C147.067 54.3011 146.875 54.4508 146.626 54.5736C146.931 54.6964 147.16 54.8959 147.312 55.1722C147.473 55.4409 147.553 55.721 147.553 56.0127C147.553 56.5653 147.348 56.9875 146.939 57.2791C146.538 57.5708 145.967 57.7166 145.229 57.7166H142.628ZM143.459 56.8762H145.133C145.518 56.8762 145.827 56.8071 146.06 56.6689C146.301 56.5231 146.421 56.3044 146.421 56.0127C146.421 55.7057 146.313 55.4831 146.096 55.3449C145.879 55.1991 145.558 55.1262 145.133 55.1262H143.459V56.8762ZM143.459 54.2742H145.06C145.446 54.2742 145.751 54.1936 145.976 54.0325C146.208 53.8713 146.325 53.6448 146.325 53.3532C146.325 53.0538 146.208 52.8505 145.976 52.743C145.751 52.6279 145.446 52.5703 145.06 52.5703H143.459V54.2742Z" fill="black"/>
<path d="M149.378 57.7166C149.298 57.7166 149.23 57.6936 149.173 57.6475C149.125 57.5938 149.101 57.5286 149.101 57.4518V51.9947C149.101 51.9179 149.125 51.8565 149.173 51.8104C149.23 51.7567 149.298 51.7299 149.378 51.7299H149.956C150.036 51.7299 150.101 51.7567 150.149 51.8104C150.205 51.8565 150.233 51.9179 150.233 51.9947V54.2051H153.509V51.9947C153.509 51.9179 153.533 51.8565 153.581 51.8104C153.637 51.7567 153.705 51.7299 153.786 51.7299H154.352C154.432 51.7299 154.496 51.7567 154.544 51.8104C154.601 51.8565 154.629 51.9179 154.629 51.9947V57.4518C154.629 57.5286 154.601 57.5938 154.544 57.6475C154.496 57.6936 154.432 57.7166 154.352 57.7166H153.786C153.705 57.7166 153.637 57.6936 153.581 57.6475C153.533 57.5938 153.509 57.5286 153.509 57.4518V55.1262H150.233V57.4518C150.233 57.5286 150.205 57.5938 150.149 57.6475C150.101 57.6936 150.036 57.7166 149.956 57.7166H149.378Z" fill="black"/>
<path d="M156.717 57.7166C156.636 57.7166 156.568 57.6936 156.512 57.6475C156.464 57.5938 156.44 57.5286 156.44 57.4518V51.9947C156.44 51.9179 156.464 51.8565 156.512 51.8104C156.568 51.7567 156.636 51.7299 156.717 51.7299H157.295C157.375 51.7299 157.439 51.7567 157.487 51.8104C157.543 51.8565 157.572 51.9179 157.572 51.9947V53.6871H158.824C159.643 53.6871 160.241 53.8713 160.618 54.2397C160.996 54.6081 161.184 55.107 161.184 55.7364C161.184 56.4118 160.976 56.9107 160.558 57.2331C160.141 57.5554 159.514 57.7166 158.679 57.7166H156.717ZM157.559 56.8531H158.716C159.205 56.8531 159.563 56.7725 159.787 56.6114C160.012 56.4425 160.125 56.1508 160.125 55.7364C160.125 55.3373 160.016 55.0418 159.799 54.8499C159.583 54.6503 159.221 54.5505 158.716 54.5505H157.559V56.8531ZM162.316 57.7166C162.236 57.7166 162.168 57.6936 162.112 57.6475C162.063 57.5938 162.039 57.5286 162.039 57.4518V51.9947C162.039 51.9179 162.063 51.8565 162.112 51.8104C162.168 51.7567 162.236 51.7299 162.316 51.7299H162.894C162.975 51.7299 163.039 51.7567 163.087 51.8104C163.143 51.8565 163.171 51.9179 163.171 51.9947V57.4518C163.171 57.5286 163.143 57.5938 163.087 57.6475C163.039 57.6936 162.975 57.7166 162.894 57.7166H162.316Z" fill="black"/>
<path d="M164.677 57.7166C164.612 57.7166 164.552 57.6936 164.496 57.6475C164.448 57.6015 164.424 57.5439 164.424 57.4748C164.424 57.4518 164.428 57.425 164.436 57.3942C164.452 57.3559 164.476 57.3137 164.508 57.2676L166.604 54.6542L164.641 52.1789C164.608 52.1328 164.584 52.0944 164.568 52.0637C164.56 52.033 164.556 52.0023 164.556 51.9716C164.556 51.9025 164.58 51.845 164.629 51.7989C164.677 51.7529 164.737 51.7299 164.809 51.7299H165.423C165.512 51.7299 165.58 51.7529 165.628 51.7989C165.676 51.8373 165.712 51.8757 165.736 51.9141L167.338 53.9058L168.94 51.9256C168.972 51.8872 169.008 51.845 169.048 51.7989C169.096 51.7529 169.165 51.7299 169.253 51.7299H169.843C169.915 51.7299 169.975 51.7529 170.024 51.7989C170.072 51.845 170.096 51.9025 170.096 51.9716C170.096 52.0023 170.088 52.033 170.072 52.0637C170.064 52.0944 170.044 52.1328 170.012 52.1789L168.025 54.6772L170.12 57.2676C170.152 57.3137 170.172 57.352 170.18 57.3827C170.196 57.4134 170.204 57.4441 170.204 57.4748C170.204 57.5439 170.18 57.6015 170.132 57.6475C170.084 57.6936 170.024 57.7166 169.951 57.7166H169.313C169.233 57.7166 169.169 57.6974 169.12 57.659C169.072 57.6207 169.032 57.5823 169 57.5439L167.314 55.437L165.604 57.5439C165.572 57.5746 165.532 57.613 165.484 57.659C165.443 57.6974 165.379 57.7166 165.291 57.7166H164.677Z" fill="black"/>
</svg>
