<?xml version="1.0" standalone="no"?>
<!DOCTYPE svg PUBLIC "-//W3C//DTD SVG 20010904//EN"
 "http://www.w3.org/TR/2001/REC-SVG-20010904/DTD/svg10.dtd">
<svg version="1.0" xmlns="http://www.w3.org/2000/svg"
 width="180.000000pt" height="180.000000pt" viewBox="0 0 180.000000 180.000000"
 preserveAspectRatio="xMidYMid meet">
<metadata>
Created by potrace 1.14, written by Peter Selinger 2001-2017
</metadata>
<g transform="translate(0.000000,180.000000) scale(0.100000,-0.100000)"
fill="#000000" stroke="none">
<path d="M827 1789 c-9 -6 -15 -14 -12 -20 3 -5 -1 -6 -9 -3 -9 4 -18 0 -22
-9 -3 -9 -14 -14 -24 -12 -10 2 -28 -7 -40 -20 -13 -14 -27 -22 -32 -19 -4 3
-11 -2 -14 -11 -4 -9 -13 -14 -21 -11 -8 4 -17 -3 -23 -17 -5 -13 -9 -16 -10
-7 0 12 -3 11 -11 -3 -6 -9 -14 -15 -20 -12 -5 4 -9 1 -9 -4 0 -6 -7 -11 -16
-11 -8 0 -13 -4 -10 -9 4 -5 -2 -8 -11 -7 -20 3 -43 -15 -35 -28 3 -5 -2 -7
-11 -3 -10 3 -17 3 -17 -1 0 -4 -23 -18 -50 -31 -28 -14 -50 -29 -50 -33 0 -4
-9 -8 -20 -8 -11 0 -23 -7 -26 -15 -4 -8 -10 -13 -14 -10 -4 3 -13 -2 -20 -10
-7 -8 -16 -13 -20 -10 -4 3 -11 -2 -14 -11 -3 -8 -10 -13 -15 -10 -5 3 -14 -1
-21 -9 -7 -8 -17 -12 -23 -8 -6 4 -8 0 -5 -9 5 -11 0 -14 -18 -12 -13 1 -22
-1 -19 -6 3 -4 -2 -11 -11 -14 -8 -3 -12 -10 -9 -16 3 -6 -1 -7 -9 -4 -14 5
-16 -18 -16 -200 0 -138 3 -206 11 -206 5 0 7 -5 3 -11 -4 -8 1 -9 16 -4 16 5
20 4 16 -4 -9 -14 16 -10 27 4 4 6 11 4 17 -5 9 -13 10 -13 10 0 0 13 1 13 10
0 7 -11 10 -11 10 -2 0 7 5 10 10 7 6 -4 8 -12 4 -18 -3 -7 3 -2 14 10 17 20
21 20 26 7 5 -13 9 -14 21 -4 14 12 19 7 16 -15 -1 -5 7 0 18 12 16 19 20 20
25 7 4 -9 11 -12 18 -7 17 10 39 13 34 4 -3 -4 4 -7 14 -7 10 0 16 4 14 8 -3
4 0 8 5 8 6 0 11 -4 11 -10 0 -5 5 -10 11 -10 5 0 7 6 3 13 -6 9 -4 9 8 -1 13
-10 17 -10 21 0 4 10 8 10 16 -2 10 -13 11 -13 11 0 0 13 1 13 10 0 7 -11 10
-11 10 -2 0 7 5 10 10 7 6 -4 8 -12 4 -18 -3 -7 3 -2 14 10 17 19 21 20 26 7
4 -9 11 -12 18 -7 17 10 39 13 34 4 -3 -4 4 -7 14 -7 10 0 16 4 14 8 -3 4 0 8
5 8 6 0 11 -4 11 -10 0 -5 5 -10 11 -10 5 0 7 6 3 13 -6 9 -4 9 8 -1 13 -10
17 -10 21 0 4 10 7 10 15 -1 8 -11 10 -11 15 0 4 10 6 10 6 2 1 -7 6 -13 12
-13 5 0 8 4 5 8 -3 5 1 9 9 9 8 0 12 -4 10 -8 -3 -4 3 -6 12 -4 10 2 22 4 26
4 5 1 5 6 2 11 -3 6 0 13 8 16 16 6 18 80 3 103 -6 9 -5 12 1 8 6 -4 11 4 11
18 0 16 -5 22 -12 18 -6 -4 -5 0 2 9 9 12 10 18 2 23 -8 5 -7 11 1 22 10 11
10 16 0 23 -11 6 -11 8 0 12 12 4 11 8 -1 23 -8 10 -10 16 -4 12 7 -4 12 2 12
18 0 16 -5 22 -12 18 -7 -4 -6 -1 1 8 9 12 10 18 1 27 -8 8 -8 15 1 26 8 10 9
16 1 21 -6 3 -7 12 -3 18 13 20 12 88 -1 80 -8 -5 -8 -3 0 8 15 20 16 61 1 52
-7 -4 -6 0 2 10 10 13 11 20 2 31 -9 10 -9 16 -1 21 8 5 8 10 0 20 -6 8 -7 16
-2 19 13 8 12 56 -2 56 -6 0 -5 4 3 9 13 8 13 12 0 27 -8 10 -9 15 -3 11 7 -4
12 2 12 18 0 14 -4 22 -9 19 -5 -3 -9 -1 -9 5 0 5 5 11 12 13 16 6 0 28 -20
28 -9 0 -25 -5 -35 -11z m-77 -59 c0 -5 -5 -10 -11 -10 -5 0 -7 5 -4 10 3 6 8
10 11 10 2 0 4 -4 4 -10z m-245 -310 c-3 -5 -1 -10 4 -10 6 0 11 6 11 13 0 9
2 9 8 0 4 -7 22 -13 39 -15 17 -1 29 -6 27 -10 -3 -4 4 -8 16 -8 12 0 18 -4
15 -10 -3 -5 0 -10 7 -11 9 0 10 -2 1 -5 -7 -3 -9 -13 -6 -22 6 -15 5 -15 -10
-3 -9 7 -28 11 -42 9 -14 -3 -25 0 -26 6 0 7 -3 6 -6 -1 -2 -7 -9 -13 -14 -13
-6 0 -8 3 -6 8 3 4 -10 7 -29 7 -19 0 -34 -4 -34 -8 0 -5 -6 -5 -12 -1 -10 6
-10 5 -1 -8 7 -8 10 -18 6 -21 -3 -4 -1 -7 6 -7 7 0 10 -4 7 -8 -3 -5 11 -9
30 -9 27 0 34 4 29 15 -4 11 -2 12 7 4 7 -5 32 -8 56 -6 24 2 42 0 42 -6 0 -6
5 -10 11 -10 5 0 7 5 4 10 -3 6 3 10 15 10 12 0 19 -4 16 -8 -3 -5 1 -9 8 -9
8 0 12 7 9 16 -3 12 -2 11 7 -2 6 -9 15 -15 21 -12 5 4 9 1 9 -5 0 -6 5 -8 12
-4 7 4 8 3 4 -5 -4 -6 0 -14 8 -17 9 -3 16 -12 16 -20 0 -8 4 -14 10 -14 5 0
7 -7 4 -15 -4 -8 -11 -12 -18 -8 -6 4 -5 0 2 -9 11 -14 10 -16 -5 -13 -10 2
-20 4 -23 5 -3 1 -9 2 -13 1 -48 -8 -77 -9 -73 -2 3 4 -2 8 -10 8 -8 0 -13 -6
-10 -13 6 -15 -29 -11 -49 6 -7 6 -15 7 -18 3 -7 -12 -68 -8 -76 5 -4 7 -14 2
-29 -13 -16 -17 -19 -26 -11 -31 8 -5 9 -3 4 6 -5 9 -4 11 4 6 8 -5 9 -12 3
-19 -5 -7 -8 -20 -7 -29 2 -11 -2 -15 -11 -11 -8 3 -14 10 -14 17 0 6 -4 5 -9
-3 -5 -8 -16 -11 -26 -8 -9 4 -14 3 -11 -1 6 -10 -67 -8 -83 2 -6 4 -11 0 -12
-11 0 -10 -3 -13 -6 -5 -2 6 -14 12 -25 12 -29 0 -50 24 -35 40 9 10 9 11 0 6
-8 -4 -11 1 -10 14 1 11 5 20 9 20 4 0 8 7 8 16 0 9 5 12 12 8 8 -5 9 -2 5 9
-5 14 -2 15 19 7 33 -13 37 -13 28 3 -6 9 -4 9 7 2 8 -6 34 -10 59 -10 25 0
48 -4 52 -10 5 -6 8 -5 8 4 0 8 8 4 21 -10 11 -13 18 -18 14 -11 -3 6 -1 12 6
12 9 0 9 3 0 14 -9 11 -9 16 0 22 8 5 9 3 4 -6 -5 -9 -4 -11 4 -6 8 6 9 12 2
20 -6 7 -7 17 -3 21 4 5 1 5 -5 1 -8 -4 -13 -2 -14 6 0 10 -2 10 -6 -1 -5 -11
-7 -11 -14 0 -7 12 -9 11 -9 -1 0 -11 -11 -15 -39 -15 -22 -1 -38 2 -35 6 2 4
-12 3 -31 -1 -22 -5 -38 -4 -42 3 -4 6 -1 7 7 2 10 -6 12 -4 7 8 -3 9 0 18 9
21 10 4 13 1 9 -7 -4 -6 1 -3 10 8 9 11 21 19 26 17 6 -1 8 2 5 6 -3 5 5 18
19 28 13 10 21 22 18 27 -4 6 -1 7 7 2 7 -4 16 -2 20 6 9 13 31 21 62 20 10 0
20 4 23 10 4 5 8 9 11 9 3 0 2 -4 -1 -10z m230 -240 c-3 -5 -12 -10 -18 -10
-7 0 -6 4 3 10 19 12 23 12 15 0z m-80 -20 c-8 -13 8 -13 21 0 7 7 11 6 11 -4
0 -8 -4 -13 -9 -10 -4 3 -8 0 -8 -5 0 -14 17 -14 25 -1 7 11 33 9 54 -4 8 -5
16 -3 22 5 9 15 9 15 13 -18 1 -12 -1 -20 -6 -17 -4 3 -8 -4 -8 -15 0 -11 -5
-23 -12 -27 -7 -5 -9 -2 -4 7 4 8 1 6 -7 -3 -8 -10 -17 -15 -20 -11 -4 3 -7 2
-7 -4 0 -5 -12 -15 -26 -21 -20 -10 -24 -10 -18 0 4 7 -2 5 -13 -5 -11 -9 -23
-14 -27 -10 -11 11 -106 11 -106 0 0 -6 -5 -6 -12 0 -11 8 -33 10 -40 3 -10
-8 -48 -5 -48 4 0 6 -5 4 -10 -4 -7 -11 -10 -11 -10 -2 0 7 -4 11 -8 8 -5 -3
-22 2 -38 10 -18 10 -24 10 -16 3 6 -7 12 -17 12 -22 0 -5 -6 -5 -12 1 -7 6
-17 10 -23 10 -5 0 -11 6 -13 14 -2 9 0 8 7 -2 7 -9 11 -10 11 -3 0 20 -18 24
-29 6 -9 -16 -10 -16 -8 4 0 12 6 21 12 20 5 -1 9 5 7 13 -2 13 -1 13 10 0 7
-8 25 -16 40 -17 21 -2 26 2 22 15 -3 9 1 6 9 -7 8 -14 17 -19 21 -13 7 12 24
11 45 -2 11 -7 13 -5 8 7 -3 10 -2 17 4 17 6 0 7 4 4 10 -3 5 -8 19 -10 29 -3
15 1 18 12 14 12 -5 14 -3 8 8 -7 11 -6 12 6 2 9 -8 20 -9 29 -3 8 5 22 7 31
5 9 -3 28 -1 42 4 17 7 28 7 32 1 7 -12 26 -13 24 -2 -2 12 1 22 7 22 3 0 2
-4 -1 -10z m102 -12 c-3 -8 -6 -5 -6 6 -1 11 2 17 5 13 3 -3 4 -12 1 -19z"/>
<path d="M600 1140 c-9 -6 -10 -10 -3 -10 6 0 15 5 18 10 8 12 4 12 -15 0z"/>
<path d="M420 1055 c0 -2 6 -8 13 -14 10 -8 14 -7 14 2 0 8 -6 14 -14 14 -7 0
-13 -1 -13 -2z"/>
<path d="M972 1785 c-17 -9 -20 -14 -10 -18 11 -5 11 -7 -1 -15 -11 -8 -11
-10 0 -15 12 -5 12 -7 0 -15 -11 -8 -11 -10 0 -15 12 -5 12 -7 0 -15 -11 -8
-11 -10 0 -15 12 -5 12 -7 0 -15 -11 -8 -11 -10 0 -15 12 -5 12 -7 0 -15 -11
-8 -11 -11 0 -16 12 -5 12 -7 0 -12 -11 -5 -11 -8 0 -15 12 -8 12 -10 0 -18
-11 -7 -11 -9 0 -14 12 -5 12 -7 0 -15 -11 -8 -11 -10 0 -15 12 -5 12 -7 0
-15 -11 -8 -11 -10 0 -15 12 -5 12 -7 0 -15 -11 -8 -11 -10 0 -15 12 -4 11 -7
-1 -16 -12 -8 -12 -11 -1 -11 11 0 11 -3 0 -17 -10 -11 -10 -14 -1 -9 6 4 12
3 12 -1 0 -5 -6 -15 -12 -22 -10 -11 -10 -13 0 -7 6 4 12 3 12 -1 0 -5 -6 -15
-12 -22 -10 -11 -10 -13 0 -7 6 4 12 3 12 -1 0 -5 -6 -15 -12 -22 -10 -11 -10
-13 0 -7 6 4 12 3 12 -1 0 -5 -6 -15 -12 -22 -10 -11 -10 -13 0 -7 16 9 16 -6
0 -23 -10 -11 -10 -13 0 -7 6 4 12 3 12 -1 0 -5 -6 -15 -12 -22 -10 -11 -10
-13 0 -7 16 9 16 -6 0 -23 -10 -11 -10 -13 0 -7 6 4 12 3 12 -1 0 -5 -6 -15
-12 -22 -9 -10 -9 -12 -1 -7 8 4 11 -1 10 -14 -1 -11 -6 -20 -12 -20 -5 0 -3
-5 5 -10 13 -9 13 -11 0 -20 -8 -5 -10 -10 -4 -10 6 0 12 -11 12 -25 0 -15 -5
-22 -12 -18 -6 3 -6 0 2 -8 6 -7 12 -17 12 -22 0 -4 -6 -5 -12 -1 -10 6 -10 4
0 -7 16 -17 16 -32 0 -23 -7 4 -5 -2 5 -14 11 -12 16 -26 11 -33 -5 -9 -2 -10
9 -6 10 4 17 2 17 -5 0 -7 5 -6 15 2 8 7 15 8 15 3 0 -5 7 -10 15 -10 8 0 12
4 9 9 -3 4 0 8 5 8 6 0 11 -6 11 -12 0 -10 3 -9 9 1 7 11 9 11 14 0 5 -12 7
-12 15 0 11 16 35 5 26 -12 -3 -7 3 -2 14 10 17 19 21 20 26 7 4 -12 10 -13
26 -4 15 8 20 8 20 -1 0 -8 4 -8 15 1 9 7 15 8 15 2 0 -5 10 -8 22 -4 16 4 19
2 13 -9 -6 -11 -5 -11 5 -2 7 6 20 9 29 6 13 -4 14 -3 1 5 -8 6 -17 9 -21 7
-3 -3 -5 7 -3 20 1 14 -1 25 -6 25 -4 0 -11 8 -14 17 -6 15 -5 15 13 -1 11
-10 18 -24 14 -30 -3 -6 -2 -7 2 -3 11 10 16 39 5 32 -4 -3 -13 2 -20 10 -10
12 -16 13 -29 3 -9 -7 -13 -8 -9 -4 4 5 2 16 -5 24 -10 13 -9 14 3 7 9 -5 8 0
-4 13 -11 12 -16 25 -13 29 4 3 7 0 7 -7 0 -7 2 -11 5 -8 3 3 -1 17 -8 31 -8
15 -17 24 -20 20 -4 -3 -7 4 -7 16 0 12 -4 20 -9 16 -5 -3 -12 -1 -16 5 -3 5
0 10 7 10 9 1 7 5 -4 14 -14 10 -15 15 -5 26 7 7 8 10 2 8 -5 -3 -17 1 -25 10
-13 14 -13 15 1 10 10 -4 15 0 15 12 0 10 -5 16 -10 13 -5 -4 -7 1 -3 11 4 10
7 20 7 22 0 3 5 2 12 -2 7 -5 8 -3 3 7 -11 16 -14 48 -6 47 20 -2 30 5 36 23
6 17 9 19 16 8 6 -11 13 -9 33 11 15 13 26 18 26 11 0 -9 5 -8 15 3 15 14 45
12 45 -3 0 -7 7 -9 49 -13 11 -1 19 -5 19 -8 -2 -20 4 -30 18 -30 8 0 12 -4 9
-10 -3 -5 -1 -10 5 -10 6 0 9 -4 6 -9 -4 -5 0 -12 6 -15 10 -5 10 -7 1 -12
-10 -4 -10 -10 0 -25 10 -16 9 -21 -3 -29 -8 -5 -10 -10 -4 -10 6 0 11 -7 11
-15 0 -8 -4 -12 -9 -9 -5 4 -9 0 -7 -7 3 -25 -1 -40 -9 -35 -4 2 -14 -5 -21
-17 -11 -18 -11 -20 0 -9 7 6 18 12 24 12 5 0 -2 -8 -18 -18 -15 -10 -24 -22
-20 -25 3 -4 1 -7 -6 -7 -7 0 -10 -4 -7 -9 9 -14 -12 -63 -23 -56 -5 3 -13 0
-17 -6 -4 -7 -3 -9 3 -6 6 4 14 0 17 -9 3 -9 2 -12 -4 -9 -6 4 -15 -4 -20 -17
-11 -23 -11 -23 -6 0 2 12 0 22 -5 22 -8 0 -13 -23 -10 -43 1 -5 -3 -6 -9 -2
-5 3 -10 1 -10 -6 0 -6 8 -9 20 -6 10 3 18 0 17 -5 -1 -6 6 -12 16 -13 9 -2
15 1 11 6 -3 5 0 9 5 9 6 0 11 -5 11 -11 0 -8 4 -9 13 0 8 6 17 8 21 4 10 -11
37 -12 30 -2 -3 5 -1 9 5 9 5 0 11 -6 14 -12 3 -10 7 -10 20 1 10 7 17 9 17 4
0 -5 7 -10 15 -10 8 0 12 4 9 9 -3 4 0 8 5 8 6 0 11 -6 11 -12 0 -10 3 -9 9 1
7 11 10 11 15 0 5 -11 7 -11 12 -1 3 6 10 12 15 12 6 0 8 -4 5 -8 -2 -4 8 -8
24 -7 15 0 26 3 23 7 -2 5 1 8 6 8 6 0 11 -5 11 -11 0 -5 5 -7 10 -4 12 8 13
444 1 464 -5 7 -13 11 -19 7 -5 -3 -13 1 -16 10 -4 9 -13 14 -21 10 -8 -3 -14
-1 -12 3 1 5 -2 9 -6 9 -5 1 -15 9 -24 19 -8 10 -11 12 -8 5 6 -11 3 -11 -14
0 -12 7 -21 16 -21 20 0 5 -7 8 -16 8 -9 0 -12 5 -8 12 4 6 3 8 -4 4 -12 -7
-62 13 -62 26 0 4 -7 8 -16 8 -9 0 -12 5 -8 11 4 7 1 10 -7 7 -8 -3 -20 2 -27
11 -8 9 -10 10 -7 3 6 -11 3 -12 -14 -3 -11 7 -21 14 -21 17 0 3 5 2 12 -2 7
-4 8 -3 4 4 -4 6 -13 9 -21 5 -9 -3 -15 1 -15 10 0 9 -7 14 -17 13 -9 -2 -27
7 -41 18 -13 12 -29 21 -35 21 -21 1 -67 37 -60 48 3 6 1 7 -5 3 -6 -4 -22 -1
-34 6 -13 7 -26 11 -31 10 -4 -1 -6 3 -5 10 2 7 -6 12 -17 13 -11 0 -19 6 -17
13 1 8 -2 11 -6 8 -5 -3 -17 3 -27 14 -20 23 -30 23 -63 5z m53 -5 c3 -5 1
-10 -4 -10 -6 0 -11 5 -11 10 0 6 2 10 4 10 3 0 8 -4 11 -10z m182 -325 c0 -8
-4 -12 -9 -9 -5 3 -6 10 -3 15 9 13 12 11 12 -6z m243 9 c0 -8 -19 -13 -24 -6
-3 5 1 9 9 9 8 0 15 -2 15 -3z m-190 -65 c0 -15 -18 -19 -23 -6 -3 8 1 14 9
14 8 0 14 -4 14 -8z m-125 -30 c11 -16 1 -19 -13 -3 -7 8 -8 14 -3 14 5 0 13
-5 16 -11z"/>
<path d="M680 871 c0 -9 -8 -11 -24 -7 -15 4 -26 1 -29 -7 -4 -9 -8 -9 -15 2
-8 11 -10 11 -15 0 -4 -10 -6 -10 -6 -1 -1 6 -6 12 -12 12 -5 0 -7 -5 -3 -12
4 -7 3 -8 -4 -4 -19 12 -53 16 -47 5 4 -5 1 -9 -4 -9 -6 0 -11 5 -11 11 0 8
-6 7 -17 -2 -13 -11 -17 -11 -20 -1 -3 6 -9 12 -14 12 -6 0 -7 -5 -3 -12 4 -7
3 -8 -4 -4 -19 12 -53 16 -47 5 4 -5 1 -9 -4 -9 -6 0 -11 5 -11 11 0 8 -5 7
-16 -2 -13 -10 -17 -10 -24 1 -7 11 -11 11 -24 1 -12 -11 -16 -11 -16 -1 0 9
-4 9 -17 -1 -13 -11 -17 -11 -20 -1 -3 6 -9 12 -14 12 -6 0 -7 -5 -3 -12 4 -7
3 -8 -4 -4 -19 12 -53 16 -47 5 4 -5 1 -9 -4 -9 -6 0 -11 5 -11 11 0 8 -4 8
-13 0 -10 -8 -17 -7 -26 2 -7 6 -12 8 -11 2 5 -22 -1 -29 -10 -15 -6 10 -10
-54 -10 -190 0 -202 4 -250 21 -250 5 0 6 8 2 18 -4 10 6 5 22 -13 16 -16 33
-29 37 -27 4 1 8 -2 8 -8 0 -5 7 -10 15 -10 9 0 18 -7 21 -15 4 -8 10 -13 14
-10 5 3 19 -5 31 -17 12 -13 18 -16 14 -8 -6 10 -2 9 13 -3 12 -11 26 -16 33
-11 7 4 10 3 5 -4 -3 -6 7 -16 24 -24 16 -7 30 -16 30 -19 0 -4 7 -10 16 -13
9 -3 12 -2 8 5 -3 6 3 5 15 -3 12 -7 21 -19 21 -26 0 -7 4 -11 9 -7 5 3 12 1
16 -5 4 -6 10 -8 15 -5 5 3 13 -3 19 -12 6 -10 11 -14 11 -9 0 5 9 -1 20 -14
11 -13 20 -17 20 -10 0 7 9 3 20 -10 11 -13 20 -18 20 -11 0 9 4 8 14 -1 8 -7
11 -17 8 -22 -3 -5 0 -6 6 -2 6 3 14 1 17 -5 4 -5 14 -8 22 -5 8 3 12 2 9 -3
-3 -5 8 -14 24 -20 17 -5 30 -15 30 -22 0 -6 7 -9 15 -5 8 3 15 1 15 -4 0 -6
7 -10 15 -10 9 0 18 -6 21 -14 3 -9 12 -12 21 -9 11 4 14 2 9 -5 -5 -8 1 -12
18 -12 14 0 26 5 26 11 0 5 -6 7 -12 3 -10 -6 -10 -4 -2 7 15 20 16 61 1 52
-7 -4 -6 0 2 10 10 13 11 20 2 31 -9 10 -9 16 -1 21 8 5 8 10 0 20 -8 9 -8 15
0 20 5 3 10 13 10 21 0 10 -5 12 -12 8 -10 -6 -10 -4 0 8 9 11 10 18 2 23 -6
3 -7 12 -3 18 13 20 12 88 -1 80 -8 -5 -8 -3 0 8 15 20 16 61 1 52 -7 -4 -6 0
2 10 10 13 11 20 2 31 -9 10 -9 16 -1 21 8 5 8 10 0 20 -6 8 -7 16 -2 19 13 8
12 56 -2 56 -6 0 -5 4 3 9 13 8 13 12 0 27 -8 10 -9 15 -3 11 7 -4 12 2 12 18
0 16 -5 22 -12 18 -7 -4 -6 -1 1 8 9 12 10 18 1 27 -8 8 -8 15 0 25 8 9 8 17
1 24 -8 8 -8 13 0 17 6 4 11 16 11 27 0 14 -4 18 -12 13 -8 -5 -8 -1 1 10 12
14 12 19 2 26 -11 6 -11 9 0 13 11 4 11 6 1 6 -7 1 -11 5 -7 10 3 5 0 13 -6
17 -8 4 -9 3 -5 -4 4 -7 2 -12 -3 -12 -6 0 -11 8 -11 18 0 14 -2 15 -10 2 -9
-13 -10 -13 -10 0 0 13 -1 13 -10 0 -8 -12 -10 -12 -10 -1 0 10 -3 11 -14 2
-11 -10 -17 -8 -25 6 -7 12 -10 13 -11 4 0 -8 -7 -11 -20 -8 -11 3 -23 0 -27
-5 -4 -7 -11 -4 -20 7 -8 12 -13 14 -13 6z m-259 -105 c5 3 9 0 9 -5 0 -6 22
-11 51 -11 31 0 48 -4 44 -10 -4 -6 -11 -7 -17 -4 -6 4 -3 -4 8 -18 10 -14 22
-24 27 -21 4 2 7 -1 7 -7 0 -6 5 -8 10 -5 6 3 10 1 10 -5 0 -6 5 -8 12 -4 7 5
8 3 2 -7 -4 -8 -10 -22 -11 -33 -2 -14 1 -17 14 -12 10 4 14 4 10 0 -4 -4 -2
-13 4 -21 9 -10 8 -17 -2 -30 -12 -14 -12 -16 0 -8 10 6 12 4 7 -4 -5 -7 -14
-10 -22 -7 -11 4 -12 1 -5 -12 5 -9 9 -20 10 -24 1 -5 4 -8 8 -7 3 0 10 -6 15
-15 8 -15 12 -15 41 1 18 10 35 23 39 28 8 10 12 0 9 -19 -1 -4 4 -15 10 -23
7 -8 8 -13 3 -12 -19 3 -49 -3 -36 -8 6 -2 12 -11 12 -19 0 -8 5 -14 10 -14 6
0 10 -4 10 -8 0 -5 -13 -8 -30 -7 -33 2 -37 -10 -15 -39 8 -10 13 -22 11 -25
-2 -3 9 -6 25 -7 16 -1 26 3 22 9 -3 5 0 8 7 5 24 -8 51 29 45 60 -3 15 -7 32
-9 39 -1 7 -6 16 -11 20 -4 4 -5 2 -1 -4 5 -9 2 -11 -8 -7 -9 3 -13 10 -10 15
3 5 -2 9 -11 9 -9 0 -15 5 -13 12 6 17 38 19 45 2 3 -8 9 -12 13 -9 5 3 11 -4
15 -15 3 -11 11 -20 16 -20 5 0 9 -5 9 -11 0 -5 -4 -7 -10 -4 -5 3 -10 1 -10
-4 0 -6 5 -11 10 -11 6 0 10 -7 10 -16 0 -14 -2 -15 -17 -3 -15 13 -15 12 -3
-8 8 -12 19 -19 25 -16 5 4 -1 -6 -15 -21 -25 -27 -88 -67 -76 -48 3 6 -1 12
-9 15 -9 4 -12 1 -8 -9 3 -7 0 -14 -6 -14 -6 0 -11 5 -11 11 0 5 -4 8 -9 4 -5
-3 -12 -1 -16 5 -4 6 -10 8 -15 5 -5 -3 -12 6 -16 20 -3 14 -11 22 -17 18 -6
-3 -7 -1 -3 5 4 7 2 12 -4 12 -6 0 -8 5 -5 11 10 15 47 -21 40 -38 -2 -8 0
-11 5 -8 15 9 12 18 -15 47 -26 29 -33 44 -13 32 7 -4 8 -3 4 4 -4 7 -16 12
-27 12 -10 0 -19 5 -19 11 0 6 -5 7 -12 2 -7 -4 -17 -8 -23 -8 -5 -1 -10 -5
-9 -10 0 -6 -11 -21 -24 -35 -20 -20 -24 -21 -18 -6 5 14 3 16 -6 9 -7 -6 -21
-9 -31 -7 -12 1 -17 -2 -13 -11 2 -7 -3 -15 -12 -17 -22 -6 -44 1 -37 13 4 5
-1 6 -9 3 -9 -3 -16 -1 -16 6 0 6 -5 8 -12 3 -7 -4 -18 -8 -25 -9 -15 -3 -38
24 -30 33 9 9 -13 34 -24 27 -5 -3 -16 2 -25 10 -8 9 -12 16 -8 16 3 0 1 6 -5
14 -8 10 -9 16 -2 21 7 4 7 11 -2 19 -6 8 -15 12 -19 9 -5 -2 -8 7 -8 21 0 17
6 26 16 26 8 0 12 5 9 10 -3 6 0 10 7 10 10 0 10 2 0 9 -19 12 -19 15 -2 36 8
11 10 16 4 12 -6 -3 -11 0 -11 7 0 8 7 12 15 8 11 -4 13 -2 7 9 -8 12 -6 12 8
0 12 -9 17 -10 17 -2 0 7 5 9 13 5 8 -5 8 -2 -2 9 -9 11 -10 17 -2 17 6 0 11
6 11 14 0 20 17 29 26 15 5 -8 3 -9 -6 -4 -9 5 -11 4 -6 -4 6 -9 11 -9 21 -1
8 7 19 9 25 5 5 -3 10 1 10 10 0 11 5 15 15 11 8 -3 15 0 16 7 0 9 2 9 6 -1 2
-6 9 -10 14 -6z"/>
<path d="M372 703 c-6 -3 -10 -9 -7 -14 4 -5 -1 -6 -9 -3 -9 3 -16 1 -16 -5 0
-6 -7 -11 -15 -11 -16 0 -36 -39 -28 -52 2 -5 -1 -8 -7 -8 -7 0 -9 -8 -5 -21
5 -16 4 -20 -6 -15 -8 4 -5 0 5 -8 13 -10 15 -16 7 -16 -11 0 -11 -3 -1 -15 7
-8 9 -15 6 -15 -4 0 4 -11 16 -24 13 -13 26 -21 31 -19 4 2 7 -4 7 -13 0 -10
3 -14 7 -11 3 4 12 2 20 -4 10 -9 13 -8 13 1 0 10 3 10 15 0 12 -10 15 -10 15
1 0 11 2 11 10 -1 6 -9 10 -11 10 -3 0 7 7 10 15 7 8 -4 15 -1 15 6 0 6 5 8
12 4 6 -4 8 -3 4 4 -3 6 2 16 11 22 17 10 16 10 -2 8 -11 -2 -19 2 -18 8 1 6
-8 10 -20 10 -13 -1 -21 4 -19 12 1 8 -2 11 -9 6 -6 -3 -15 0 -20 7 -8 12 -11
12 -20 -1 -9 -13 -10 -12 -5 2 3 10 -2 22 -12 28 -13 8 -10 9 13 4 17 -3 25
-2 19 3 -15 11 -14 40 2 40 7 0 10 -7 6 -16 -5 -14 -4 -14 13 -1 10 8 16 10
12 4 -4 -7 0 -15 9 -18 8 -3 12 -2 9 4 -3 6 -1 10 4 10 6 0 11 -7 11 -15 0 -8
7 -15 16 -15 8 0 13 -4 10 -9 -3 -4 5 -8 17 -7 19 1 22 6 20 36 -4 54 -6 60
-15 54 -4 -3 -8 2 -8 10 0 8 -9 18 -20 21 -11 3 -20 11 -20 17 0 7 -5 6 -14
-1 -11 -9 -16 -9 -22 0 -4 8 -3 9 4 5 7 -4 12 -2 12 3 0 14 -27 14 -35 1 -4
-7 -11 -7 -18 -2 -7 5 -18 7 -25 5z"/>
<path d="M766 358 c3 -5 10 -6 15 -3 13 9 11 12 -6 12 -8 0 -12 -4 -9 -9z"/>
<path d="M1640 871 c0 -8 -7 -11 -20 -8 -11 3 -20 0 -20 -6 0 -8 -3 -8 -8 -2
-10 15 -42 18 -42 4 0 -8 -5 -7 -17 2 -11 10 -14 10 -9 2 4 -7 2 -13 -3 -13
-6 0 -11 5 -11 10 0 6 -5 10 -11 10 -5 0 -7 -5 -3 -12 4 -7 3 -8 -4 -4 -19 12
-53 16 -47 5 4 -5 1 -9 -4 -9 -6 0 -11 5 -11 11 0 8 -6 7 -17 -2 -13 -11 -17
-11 -20 -1 -3 6 -9 12 -14 12 -6 0 -7 -5 -3 -12 4 -7 3 -8 -4 -4 -19 12 -53
16 -47 5 4 -5 1 -9 -4 -9 -6 0 -11 5 -11 11 0 8 -6 7 -17 -2 -13 -11 -17 -11
-20 -1 -3 6 -9 12 -14 12 -6 0 -7 -5 -3 -12 4 -7 3 -8 -4 -4 -19 12 -53 16
-47 5 4 -5 1 -9 -4 -9 -6 0 -11 5 -11 11 0 8 -6 7 -17 -2 -13 -11 -17 -11 -20
-1 -3 6 -9 12 -14 12 -6 0 -7 -5 -3 -12 4 -7 3 -8 -4 -4 -19 12 -53 16 -47 5
4 -5 1 -9 -4 -9 -6 0 -11 5 -11 11 0 8 -5 7 -16 -2 -13 -10 -17 -10 -25 2 -6
9 -12 10 -16 4 -5 -6 -17 -11 -28 -11 -14 1 -19 -5 -17 -18 2 -10 -1 -16 -6
-12 -5 3 -9 -1 -9 -9 0 -8 4 -12 9 -9 13 8 10 -10 -4 -25 -10 -11 -10 -13 0
-7 16 9 16 -6 0 -23 -10 -11 -10 -13 0 -7 6 4 12 3 12 -1 0 -5 -6 -15 -12 -22
-10 -11 -10 -13 0 -7 16 9 16 -6 0 -23 -11 -11 -10 -12 1 -6 9 5 12 3 9 -6 -3
-8 -1 -23 5 -34 9 -17 8 -18 -5 -8 -12 10 -15 10 -15 -2 0 -8 5 -15 10 -15 5
0 4 -6 -2 -14 -10 -11 -8 -17 6 -25 17 -10 17 -10 -2 -11 -12 -1 -15 -4 -7 -7
10 -4 10 -8 0 -21 -10 -12 -10 -14 0 -8 6 4 12 3 12 -1 0 -5 -6 -15 -12 -22
-10 -11 -10 -13 0 -7 16 9 16 -6 0 -23 -10 -11 -10 -13 0 -7 6 4 12 3 12 -1 0
-5 -6 -15 -12 -22 -10 -11 -10 -13 0 -7 16 9 16 -6 0 -23 -10 -11 -10 -13 0
-7 6 4 12 3 12 -1 0 -5 -6 -15 -12 -22 -10 -11 -10 -13 0 -7 6 4 12 3 12 -1 0
-5 -6 -15 -12 -22 -10 -11 -10 -13 0 -7 6 4 12 3 12 -1 0 -5 -6 -15 -12 -22
-10 -11 -10 -13 0 -7 6 4 12 3 12 -1 0 -5 -6 -15 -12 -22 -10 -11 -10 -13 0
-7 6 4 12 3 12 -1 0 -5 -6 -15 -12 -22 -10 -11 -10 -13 0 -7 6 4 12 3 12 -1 0
-5 -6 -15 -12 -22 -10 -11 -10 -13 0 -7 6 4 12 2 12 -3 0 -6 -6 -11 -12 -11
-9 0 -8 -4 2 -10 12 -8 13 -11 1 -19 -11 -7 -11 -9 0 -14 12 -5 12 -7 0 -15
-11 -8 -11 -10 0 -15 12 -5 12 -7 0 -15 -11 -8 -11 -10 0 -14 12 -4 11 -8 -1
-23 -9 -11 -10 -16 -2 -11 6 4 12 2 12 -3 0 -6 -6 -11 -12 -11 -9 0 -8 -4 2
-11 12 -8 12 -12 2 -16 -10 -4 -9 -9 5 -20 10 -8 12 -11 4 -7 -9 4 -12 3 -7
-4 9 -14 44 -11 50 5 3 7 12 10 21 7 9 -4 15 -3 13 2 -2 5 0 9 4 9 3 0 19 11
34 25 16 14 22 17 15 7 -12 -15 -12 -17 2 -11 8 3 18 12 21 20 3 8 14 14 25
14 10 0 22 7 25 16 3 8 10 12 16 9 5 -3 10 -1 10 6 0 7 3 10 6 6 4 -3 15 4 26
16 11 12 17 17 14 10 -5 -8 0 -8 18 0 13 7 22 15 20 19 -3 5 0 9 5 9 6 1 16 2
21 3 6 0 14 7 19 14 4 7 17 14 29 15 11 0 18 5 16 9 -3 4 1 8 10 8 8 0 29 12
47 28 18 15 29 20 24 12 -8 -13 -6 -13 8 -1 9 7 14 18 10 24 -3 6 -1 7 6 3 6
-4 24 2 40 13 15 11 31 18 35 14 3 -3 6 -1 6 6 0 7 5 9 10 6 6 -3 13 1 16 9 3
9 10 13 15 10 5 -3 9 -1 9 4 0 5 12 17 26 27 15 9 24 13 21 8 -4 -5 0 -10 8
-10 8 0 12 4 9 9 -3 4 0 8 5 8 8 0 11 75 11 231 0 200 -2 230 -15 225 -8 -3
-19 2 -24 12 -7 12 -10 13 -11 3z m-286 -172 c-3 -5 -1 -9 5 -9 5 0 12 4 16
10 3 5 12 7 20 4 8 -4 12 -11 8 -17 -3 -6 -1 -7 6 -3 6 4 18 2 26 -4 12 -10
15 -10 15 1 0 12 2 12 9 0 5 -8 14 -10 21 -6 9 5 11 4 6 -3 -5 -8 3 -11 24 -8
20 2 34 -2 40 -13 5 -9 10 -11 10 -4 0 10 6 10 25 1 14 -6 25 -15 25 -20 0 -5
-6 -6 -12 -2 -8 5 -7 0 2 -11 14 -17 13 -18 -2 -12 -13 4 -15 2 -11 -10 5 -12
3 -14 -8 -8 -8 4 -11 5 -7 0 4 -4 3 -14 -4 -22 -9 -11 -7 -12 7 -7 14 6 16 4
10 -6 -11 -18 -16 -62 -7 -56 4 2 8 -7 8 -20 2 -24 1 -24 -13 -7 -12 14 -11
12 1 -9 18 -30 22 -73 6 -63 -5 3 -10 1 -10 -6 0 -8 -8 -5 -19 7 -11 11 -15
23 -10 28 5 6 9 15 9 20 0 6 -5 4 -10 -4 -5 -8 -10 -10 -10 -4 0 6 3 14 8 18
4 4 7 20 8 35 0 15 4 32 8 39 4 7 1 15 -8 18 -9 3 -14 10 -11 14 6 9 -12 23
-32 26 -7 1 -16 -3 -20 -8 -4 -7 -1 -8 8 -3 12 7 12 5 1 -6 -11 -12 -14 -12
-23 1 -9 12 -10 10 -6 -8 3 -12 1 -20 -4 -16 -5 3 -9 0 -9 -6 0 -7 8 -9 20 -5
17 5 20 2 20 -25 0 -17 5 -41 12 -53 11 -21 10 -21 -7 -7 -11 9 -16 10 -11 2
9 -16 -2 -54 -15 -47 -5 4 -9 2 -9 -3 0 -6 -7 -13 -16 -16 -8 -3 -12 -2 -9 4
3 6 -1 7 -9 4 -9 -3 -16 -11 -16 -17 0 -8 -3 -8 -11 0 -14 14 -41 5 -32 -11 4
-7 2 -7 -8 1 -11 9 -19 9 -26 2 -8 -8 -13 -7 -18 2 -5 8 -4 10 3 5 7 -4 12 -2
12 3 0 13 -13 14 -24 4 -10 -10 -66 -11 -66 -1 0 4 -7 4 -17 1 -12 -5 -14 -3
-8 8 8 12 6 12 -8 0 -15 -12 -17 -11 -17 5 0 16 -2 17 -10 4 -9 -15 -11 -13
-14 13 0 6 -6 12 -13 12 -6 0 -15 4 -20 9 -5 5 -2 6 5 1 10 -5 13 -1 11 16 -2
13 0 29 4 36 4 6 2 15 -4 19 -8 5 -9 3 -4 -6 5 -9 4 -11 -4 -6 -8 6 -9 12 -2
20 6 7 8 16 4 20 -4 4 1 4 11 0 15 -6 17 -4 11 7 -8 12 -6 12 8 0 16 -12 17
-11 13 10 -3 13 -5 26 -5 29 -1 3 -5 -1 -10 -8 -7 -11 -11 -10 -24 2 -11 12
-18 13 -23 5 -5 -8 -13 -4 -24 12 -14 17 -21 20 -32 12 -9 -8 -18 -6 -31 7
-16 16 -16 18 -2 24 9 3 13 11 9 17 -5 8 -2 9 11 1 14 -7 23 -6 33 5 8 8 18
11 21 6 8 -11 34 -16 27 -4 -3 5 1 12 10 15 8 3 12 2 9 -4 -3 -6 1 -7 9 -4 9
3 14 9 11 13 -2 4 2 8 10 8 8 0 11 -5 8 -11 -3 -6 0 -5 8 2 7 6 22 12 34 12
12 0 27 6 34 13 8 6 11 7 8 2 -3 -6 3 -11 13 -11 12 0 16 4 10 11 -6 8 2 10
25 7 19 -2 32 -8 29 -13z m-264 -109 c0 -5 -2 -10 -4 -10 -3 0 -8 5 -11 10 -3
6 -1 10 4 10 6 0 11 -4 11 -10z"/>
<path d="M1433 574 c4 -7 0 -14 -8 -18 -8 -3 -15 0 -15 6 0 7 -7 3 -15 -8 -8
-10 -15 -15 -15 -11 0 4 -9 3 -20 -3 -11 -6 -18 -15 -16 -19 3 -4 -2 -8 -10
-8 -10 0 -11 4 -4 11 5 5 10 15 10 21 -1 5 -10 -1 -22 -15 l-21 -25 8 25 8 25
-23 -20 c-13 -11 -21 -15 -17 -10 3 6 2 17 -4 25 -7 13 -9 13 -9 1 0 -12 -3
-12 -17 1 -20 16 -44 18 -41 3 2 -5 7 -9 12 -7 5 2 6 -5 2 -15 -5 -16 -4 -15
9 1 15 19 16 19 19 -6 1 -12 19 -17 83 -22 32 -2 40 0 36 11 -6 15 17 14 28
-1 4 -4 10 -3 13 3 4 6 2 11 -4 11 -6 0 -8 5 -5 10 5 8 11 8 20 0 19 -16 43
16 25 33 -9 8 -11 8 -7 1z"/>
</g>
</svg>
